<?xml version="1.0" encoding="UTF-8" standalone="no"?>
<!DOCTYPE svg PUBLIC "-//W3C//DTD SVG 1.1//EN" "http://www.w3.org/Graphics/SVG/1.1/DTD/svg11.dtd">
<svg xmlns="http://www.w3.org/2000/svg" version="1.1" viewBox="0.00 0.00 500.00 500.00">
<g stroke-width="2.00" fill="none" stroke-linecap="butt">
<path stroke="#d0d0d0" vector-effect="non-scaling-stroke" d="
  M 247.80 289.42
  L 233.18 304.11"
/>
<path stroke="#e3e3e4" vector-effect="non-scaling-stroke" d="
  M 254.03 173.65
  L 245.68 165.59
  Q 245.23 165.16 245.23 165.78
  L 244.92 189.90
  Q 244.92 190.36 244.58 190.69
  L 208.30 226.45
  A 0.46 0.46 0.0 0 1 207.65 226.44
  L 191.84 210.21
  A 0.36 0.36 0.0 0 0 191.22 210.47
  L 191.27 221.67
  A 3.47 3.45 -22.9 0 1 190.28 224.09
  L 153.42 261.78
  Q 153.09 262.11 153.04 262.57
  Q 152.96 263.33 152.49 263.98"
/>
<path stroke="#b4b4b4" vector-effect="non-scaling-stroke" d="
  M 253.98 212.18
  Q 251.19 214.21 248.69 216.43
  C 245.15 219.59 243.28 224.07 240.82 228.16
  C 238.28 232.36 227.76 243.36 223.15 244.65
  Q 213.70 247.31 204.29 249.96"
/>
<path stroke="#b4b4b4" vector-effect="non-scaling-stroke" d="
  M 191.20 255.76
  C 183.19 261.83 177.46 268.66 168.09 278.71"
/>
<path stroke="#e3e3e4" vector-effect="non-scaling-stroke" d="
  M 134.62 285.30
  L 143.72 275.00"
/>
<path stroke="#d0d0d0" vector-effect="non-scaling-stroke" d="
  M 179.68 347.45
  L 166.76 335.04"
/>
<path stroke="#d0d0d0" vector-effect="non-scaling-stroke" d="
  M 247.65 346.41
  L 233.35 361.22"
/>
</g>
<path fill="#ffffff" d="
  M 247.80 289.42
  L 233.18 304.11
  L 233.05 282.34
  Q 233.05 281.84 233.38 281.47
  C 244.51 269.01 257.83 256.86 268.51 245.80
  A 1.77 1.76 -23.4 0 0 268.99 244.59
  L 269.02 188.73
  A 0.80 0.78 -68.7 0 0 268.78 188.16
  L 254.03 173.65
  L 245.68 165.59
  Q 245.23 165.16 245.23 165.78
  L 244.92 189.90
  Q 244.92 190.36 244.58 190.69
  L 208.30 226.45
  A 0.46 0.46 0.0 0 1 207.65 226.44
  L 191.84 210.21
  A 0.36 0.36 0.0 0 0 191.22 210.47
  L 191.27 221.67
  A 3.47 3.45 -22.9 0 1 190.28 224.09
  L 153.42 261.78
  Q 153.09 262.11 153.04 262.57
  Q 152.96 263.33 152.49 263.98
  L 124.03 264.52
  Q 123.50 264.53 123.50 264.00
  L 123.50 256.59
  Q 123.50 255.92 122.84 255.94
  L 102.03 256.31
  A 0.53 0.52 89.5 0 1 101.50 255.78
  L 101.50 240.75
  A 0.50 0.50 0.0 0 1 102.00 240.25
  L 113.75 240.25
  Q 114.25 240.25 114.25 239.75
  L 114.25 226.25
  Q 114.25 225.75 113.75 225.75
  L 106.54 225.75
  Q 105.55 225.75 106.25 225.05
  L 150.21 180.88
  Q 150.59 180.50 151.13 180.50
  L 172.58 180.50
  A 1.00 0.99 -66.8 0 0 173.27 180.22
  L 189.74 163.99
  A 0.33 0.33 0.0 0 0 189.50 163.43
  L 152.99 163.69
  Q 152.49 163.69 152.15 164.05
  L 92.08 225.47
  Q 91.72 225.83 91.21 225.86
  C 86.10 226.17 81.90 225.43 76.71 227.73
  A 0.74 0.74 0.0 0 1 75.80 227.48
  L 73.11 223.60
  A 0.71 0.70 -46.8 0 1 73.09 222.82
  C 75.25 219.39 79.64 216.35 81.82 214.08
  Q 97.46 197.84 113.61 182.11
  Q 114.18 181.55 115.28 179.76
  Q 115.50 179.39 115.50 178.96
  L 115.50 160.45
  A 3.23 3.22 65.1 0 1 116.26 158.37
  C 124.45 148.76 133.42 139.55 143.77 132.54
  Q 161.37 120.63 179.77 115.56
  C 193.38 111.81 209.81 108.59 225.08 107.92
  Q 225.58 107.90 225.64 107.40
  C 227.60 90.09 243.27 77.32 260.74 78.80
  C 279.15 80.36 292.12 97.64 290.63 115.59
  Q 290.41 118.21 288.48 124.62
  Q 286.24 132.10 285.80 139.94
  Q 285.77 140.48 285.23 140.48
  L 272.16 140.53
  A 0.63 0.62 1.7 0 1 271.53 139.87
  Q 271.87 132.99 274.00 126.73
  Q 276.65 118.96 276.81 117.96
  C 279.03 104.47 271.05 91.98 256.39 92.78
  C 238.76 93.75 237.62 112.24 240.56 125.28
  A 0.59 0.59 0.0 0 1 239.99 126.00
  L 229.54 126.00
  A 0.40 0.40 0.0 0 0 229.26 126.69
  L 285.90 182.77
  Q 286.25 183.12 286.25 183.62
  L 286.25 250.55
  Q 286.25 251.11 285.86 251.50
  L 247.80 289.42
  Z
  M 152.06 190.69
  Q 151.82 190.37 151.49 190.62
  Q 150.99 191.00 151.43 191.46
  L 164.96 205.46
  A 0.97 0.95 -21.5 0 0 165.65 205.75
  L 180.23 205.75
  Q 180.78 205.75 181.18 205.36
  L 204.47 182.33
  A 0.84 0.83 44.8 0 0 204.46 181.13
  L 196.78 173.76
  Q 196.42 173.42 196.05 173.76
  L 178.69 190.45
  A 0.90 0.86 -66.0 0 1 178.08 190.70
  Q 164.99 190.86 152.06 190.69
  Z"
/>
<path fill="#ffffff" d="
  M 184.76 80.58
  C 199.87 75.90 216.06 83.09 221.05 98.40
  A 0.41 0.40 -11.2 0 1 220.69 98.93
  L 208.22 99.73
  Q 207.68 99.76 207.35 99.34
  C 199.20 89.34 182.87 90.88 178.87 104.04
  Q 178.48 105.33 177.99 106.69
  A 0.83 0.80 -89.7 0 1 177.51 107.18
  L 164.30 112.02
  Q 163.76 112.22 163.73 111.64
  C 163.10 98.34 171.67 84.64 184.76 80.58
  Z"
/>
<circle fill="#ffffff" cx="318.42" cy="108.86" r="8.96"/>
<circle fill="#ffffff" cx="368.86" cy="126.94" r="9.28"/>
<path fill="#ffffff" d="
  M 320.39 141.05
  C 329.69 150.16 341.05 159.96 350.22 170.30
  Q 350.50 170.62 350.50 171.04
  L 350.50 203.71
  A 2.22 2.19 22.8 0 0 351.15 205.27
  L 364.06 218.19
  A 1.50 1.50 0.0 0 1 364.50 219.25
  L 364.50 299.03
  Q 364.50 299.55 363.98 299.54
  L 349.11 299.48
  A 0.62 0.61 -90.0 0 1 348.50 298.86
  L 348.50 224.65
  Q 348.50 224.16 348.15 223.81
  L 337.36 212.93
  A 1.27 1.25 23.3 0 1 337.00 212.05
  L 337.00 179.54
  A 0.82 0.79 22.4 0 0 336.75 178.96
  L 296.28 140.07
  Q 295.12 138.95 295.47 137.38
  L 299.12 121.20
  Q 299.28 120.48 299.78 121.02
  C 306.36 128.10 314.48 135.25 320.39 141.05
  Z"
/>
<circle fill="#ffffff" cx="342.82" cy="137.45" r="6.31"/>
<path fill="#ffffff" d="
  M 279.86 374.54
  L 363.82 374.48
  A 0.54 0.53 89.4 0 1 364.35 375.01
  L 364.51 389.90
  Q 364.52 390.82 363.60 390.82
  L 265.96 390.72
  Q 264.94 390.72 264.96 389.70
  L 265.10 377.55
  Q 265.11 376.98 264.70 377.38
  L 248.11 393.51
  Q 247.75 393.86 247.75 394.36
  L 247.75 429.98
  Q 247.75 430.46 247.27 430.46
  L 232.03 430.58
  A 0.30 0.29 89.1 0 1 231.73 430.28
  L 231.76 400.00
  A 2.91 2.90 22.0 0 0 230.86 397.90
  C 220.51 388.02 209.07 378.13 199.70 367.49
  Q 199.42 367.18 199.43 366.76
  L 199.53 321.39
  A 1.20 1.20 0.0 0 0 199.18 320.52
  L 189.09 310.12
  A 2.10 2.10 0.0 0 1 188.50 308.66
  L 188.50 299.25
  A 0.50 0.50 0.0 0 1 189.00 298.75
  L 197.71 298.75
  Q 198.16 298.75 198.48 299.06
  L 214.59 314.06
  Q 215.00 314.44 215.00 315.01
  L 215.00 359.99
  A 1.74 1.71 22.5 0 0 215.52 361.22
  L 236.83 381.91
  A 0.62 0.62 0.0 0 0 237.71 381.88
  C 246.22 372.68 255.72 364.52 264.39 355.43
  Q 264.75 355.06 264.78 354.54
  L 265.09 349.55
  Q 265.11 349.15 265.40 348.87
  L 309.80 305.69
  A 2.32 2.31 68.0 0 0 310.50 304.03
  L 310.50 191.71
  A 1.26 1.25 -68.4 0 0 310.11 190.80
  L 279.29 160.85
  Q 278.82 160.39 279.29 159.93
  L 289.19 150.19
  Q 289.93 149.46 290.68 150.18
  C 303.30 162.14 316.74 174.39 328.66 187.39
  A 1.30 1.25 24.5 0 1 329.00 188.25
  L 329.00 309.02
  Q 329.00 309.54 328.65 309.91
  C 312.84 326.51 295.46 341.57 279.57 358.03
  Q 279.20 358.41 279.21 358.93
  L 279.42 374.11
  Q 279.43 374.54 279.86 374.54
  Z"
/>
<circle fill="#ffffff" cx="373.98" cy="164.10" r="6.67"/>
<path fill="#c7c7c8" d="
  M 254.03 173.65
  L 253.98 212.18
  Q 251.19 214.21 248.69 216.43
  C 245.15 219.59 243.28 224.07 240.82 228.16
  C 238.28 232.36 227.76 243.36 223.15 244.65
  Q 213.70 247.31 204.29 249.96
  L 192.04 237.87
  A 0.47 0.47 0.0 0 0 191.24 238.21
  L 191.20 255.76
  C 183.19 261.83 177.46 268.66 168.09 278.71
  Q 161.10 279.50 156.43 284.78
  A 2.01 1.98 20.7 0 1 154.91 285.45
  L 134.62 285.30
  L 143.72 275.00
  L 152.53 274.96
  A 0.47 0.47 0.0 0 0 153.00 274.49
  L 153.00 264.54
  Q 153.00 264.38 152.89 264.26
  Q 152.70 264.04 152.49 263.98
  Q 152.96 263.33 153.04 262.57
  Q 153.09 262.11 153.42 261.78
  L 190.28 224.09
  A 3.47 3.45 -22.9 0 0 191.27 221.67
  L 191.22 210.47
  A 0.36 0.36 0.0 0 1 191.84 210.21
  L 207.65 226.44
  A 0.46 0.46 0.0 0 0 208.30 226.45
  L 244.58 190.69
  Q 244.92 190.36 244.92 189.90
  L 245.23 165.78
  Q 245.23 165.16 245.68 165.59
  L 254.03 173.65
  Z"
/>
<rect fill="#ffffff" x="368.00" y="194.25" width="24.00" height="12.00" rx="0.52"/>
<path fill="#a0a0a0" d="
  M 253.98 212.18
  L 253.99 232.76
  A 1.34 1.30 -24.7 0 1 253.65 233.64
  C 250.84 236.81 246.67 240.23 244.58 242.29
  C 239.07 247.71 233.58 255.75 226.04 258.36
  C 217.27 261.40 210.28 256.70 204.29 249.96
  Q 213.70 247.31 223.15 244.65
  C 227.76 243.36 238.28 232.36 240.82 228.16
  C 243.28 224.07 245.15 219.59 248.69 216.43
  Q 251.19 214.21 253.98 212.18
  Z"
/>
<rect fill="#ffffff" x="-8.62" y="-11.37" transform="translate(387.35,238.13) rotate(-0.1)" width="17.24" height="22.74" rx="0.40"/>
<path fill="#ffffff" d="
  M 143.72 275.00
  L 134.62 285.30
  L 95.76 285.43
  Q 95.31 285.43 95.30 284.98
  L 94.94 265.09
  Q 94.92 264.50 94.34 264.50
  L 86.78 264.50
  Q 86.32 264.50 86.31 264.03
  L 86.11 244.73
  A 0.35 0.35 0.0 0 1 86.74 244.53
  Q 97.81 260.07 110.15 274.62
  Q 110.44 274.97 110.90 274.97
  L 143.72 275.00
  Z"
/>
<path fill="#a0a0a0" d="
  M 191.20 255.76
  L 191.53 277.89
  A 0.83 0.83 0.0 0 1 190.70 278.74
  L 168.09 278.71
  C 177.46 268.66 183.19 261.83 191.20 255.76
  Z"
/>
<path fill="#ffffff" d="
  M 269.67 300.88
  L 298.40 272.45
  A 0.35 0.35 0.0 0 1 299.00 272.70
  L 299.00 295.75
  A 0.35 0.35 0.0 0 1 298.89 296.00
  L 281.77 312.54
  A 0.35 0.35 0.0 0 1 281.29 312.54
  L 269.67 301.38
  A 0.35 0.35 0.0 0 1 269.67 300.88
  Z"
/>
<rect fill="#ffffff" x="384.01" y="273.00" width="15.74" height="71.86" rx="0.59"/>
<path fill="#a0a0a0" d="
  M 247.80 289.42
  L 247.92 309.00
  Q 247.92 309.56 247.53 309.96
  L 233.95 323.89
  Q 233.31 324.56 233.30 323.63
  L 233.18 304.11
  L 247.80 289.42
  Z"
/>
<path fill="#ffffff" d="
  M 179.68 347.45
  L 166.76 335.04
  L 154.63 323.01
  A 1.03 1.03 0.0 0 1 154.33 322.31
  L 154.05 302.17
  A 0.47 0.47 0.0 0 1 154.85 301.82
  L 181.40 327.02
  A 0.85 0.85 0.0 0 1 181.66 327.63
  L 181.98 346.81
  A 0.94 0.94 0.0 0 1 181.03 347.76
  Q 180.33 347.75 179.68 347.45
  Z"
/>
<circle fill="#ffffff" cx="131.33" cy="317.26" r="6.13"/>
<path fill="#ffffff" d="
  M 247.65 346.41
  L 233.35 361.22
  L 233.14 337.86
  Q 233.13 337.31 233.52 336.92
  L 259.39 311.37
  Q 259.77 311.00 260.14 311.37
  L 270.95 322.05
  Q 271.34 322.43 270.95 322.82
  L 247.65 346.41
  Z"
/>
<rect fill="#ffffff" x="348.50" y="314.75" width="16.00" height="46.24" rx="0.70"/>
<path fill="#a0a0a0" d="
  M 166.76 335.04
  L 179.68 347.45
  L 167.18 347.65
  Q 166.60 347.66 166.61 347.08
  L 166.76 335.04
  Z"
/>
<ellipse fill="#ffffff" cx="0.00" cy="0.00" transform="translate(145.93,347.09) rotate(3.9)" rx="6.85" ry="6.55"/>
<path fill="#ffffff" d="
  M 332.4154 361.3818
  A 0.58 0.58 0.0 0 1 331.8375 361.9638
  L 311.1176 362.0361
  A 0.58 0.58 0.0 0 1 310.5356 361.4581
  L 310.4646 341.1182
  A 0.58 0.58 0.0 0 1 311.0425 340.5362
  L 331.7624 340.4639
  A 0.58 0.58 0.0 0 1 332.3444 341.0419
  L 332.4154 361.3818
  Z
  M 325.9548 347.1131
  A 0.26 0.26 0.0 0 0 325.6921 346.8558
  L 317.2126 346.9446
  A 0.26 0.26 0.0 0 0 316.9553 347.2074
  L 317.0452 355.7869
  A 0.26 0.26 0.0 0 0 317.3079 356.0442
  L 325.7874 355.9554
  A 0.26 0.26 0.0 0 0 326.0447 355.6926
  L 325.9548 347.1131
  Z"
/>
<path fill="#a0a0a0" d="
  M 247.65 346.41
  Q 248.55 353.77 247.62 360.34
  Q 247.53 360.94 246.92 360.95
  L 233.35 361.22
  L 247.65 346.41
  Z"
/>
<rect fill="#ffffff" x="-7.86" y="-10.74" transform="translate(174.36,373.76) rotate(-0.2)" width="15.72" height="21.48" rx="0.46"/>
<circle fill="#ffffff" cx="128.90" cy="372.35" r="8.58"/>
<circle fill="#ffffff" cx="208.61" cy="405.39" r="6.35"/>
<rect fill="#ffffff" x="-8.00" y="-8.50" transform="translate(269.50,414.75) rotate(-0.1)" width="16.00" height="17.00" rx="0.43"/>
</svg>
