<?xml version="1.0" encoding="UTF-8" standalone="no"?>
<svg
   version="1.1"
   viewBox="0.00 0.00 500.00 500.00"
   id="svg106"
   sodipodi:docname="_56e95c22-ec2d-4840-bd29-b9a25cb25929-removebg-preview.svg"
   inkscape:version="1.3 (0e150ed6c4, 2023-07-21)"
   xmlns:inkscape="http://www.inkscape.org/namespaces/inkscape"
   xmlns:sodipodi="http://sodipodi.sourceforge.net/DTD/sodipodi-0.dtd"
   xmlns="http://www.w3.org/2000/svg"
   xmlns:svg="http://www.w3.org/2000/svg">
  <defs
     id="defs106" />
  <sodipodi:namedview
     id="namedview106"
     pagecolor="#505050"
     bordercolor="#eeeeee"
     borderopacity="1"
     inkscape:showpageshadow="0"
     inkscape:pageopacity="0"
     inkscape:pagecheckerboard="0"
     inkscape:deskcolor="#505050"
     inkscape:zoom="1.066"
     inkscape:cx="238.27392"
     inkscape:cy="247.18574"
     inkscape:window-width="1366"
     inkscape:window-height="745"
     inkscape:window-x="1016"
     inkscape:window-y="-8"
     inkscape:window-maximized="1"
     inkscape:current-layer="svg106" />
  <g
     stroke-width="2.00"
     fill="none"
     stroke-linecap="butt"
     id="g29">
    <path
       stroke="#dde0ed"
       vector-effect="non-scaling-stroke"
       d="   M 336.83 155.81   L 331.20 161.33"
       id="path1" />
    <path
       stroke="#dde0ed"
       vector-effect="non-scaling-stroke"
       d="   M 271.26 186.38   L 194.28 227.51"
       id="path2" />
    <path
       stroke="#dde0ed"
       vector-effect="non-scaling-stroke"
       d="   M 313.55 209.69   L 236.08 251.76"
       id="path3" />
    <path
       stroke="#dde0ed"
       vector-effect="non-scaling-stroke"
       d="   M 254.26 256.33   L 254.48 326.66   Q 254.48 327.31 255.05 327.00   L 309.87 297.36   A 1.18 1.16 -8.8 0 0 310.45 296.58   C 312.95 284.49 317.24 272.44 317.25 260.00   Q 317.27 241.20 317.70 221.40"
       id="path4" />
    <path
       stroke="#dde0ed"
       vector-effect="non-scaling-stroke"
       d="   M 419.49 241.56   Q 417.97 258.75 402.81 260.36   Q 401.64 260.48 399.79 259.96   Q 398.13 259.49 396.66 259.66"
       id="path5" />
    <path
       stroke="#dde0ed"
       vector-effect="non-scaling-stroke"
       d="   M 98.16 243.30   L 95.05 253.36   A 1.87 1.83 -12.7 0 1 94.54 254.15   C 92.23 256.22 90.39 258.82 87.54 259.88   C 84.28 261.09 81.44 261.76 77.98 260.31   Q 75.93 259.45 73.72 259.07"
       id="path6" />
    <path
       stroke="#dde0ed"
       vector-effect="non-scaling-stroke"
       d="   M 217.24 283.81   Q 221.93 285.84 226.42 280.14   C 229.69 275.98 233.11 271.98 236.39 267.72"
       id="path7" />
    <path
       stroke="#949aa6"
       vector-effect="non-scaling-stroke"
       d="   M 392.11 289.90   L 386.98 288.20"
       id="path8" />
    <path
       stroke="#dde0ed"
       vector-effect="non-scaling-stroke"
       d="   M 152.56 274.46   L 152.50 277.05   A 0.90 0.88 82.9 0 1 151.87 277.88   Q 146.62 279.48 142.06 282.54   A 0.77 0.77 0.0 0 1 141.07 282.41   L 139.33 280.45"
       id="path9" />
    <path
       stroke="#dde0ed"
       vector-effect="non-scaling-stroke"
       d="   M 358.59 272.80   L 355.58 281.53   A 1.02 1.02 0.0 0 1 354.11 282.08   Q 349.36 279.31 343.86 277.81"
       id="path10" />
    <path
       stroke="#f0f1f7"
       vector-effect="non-scaling-stroke"
       d="   M 160.36 299.03   Q 156.12 304.54 152.50 304.96   Q 148.99 305.36 142.64 303.50"
       id="path11" />
    <path
       stroke="#f0f1f7"
       vector-effect="non-scaling-stroke"
       d="   M 353.22 299.18   Q 348.07 306.14 342.17 304.61   Q 337.13 303.30 335.41 303.23"
       id="path12" />
    <path
       stroke="#dde0ed"
       vector-effect="non-scaling-stroke"
       d="   M 384.21 309.60   L 373.81 327.35"
       id="path13" />
    <path
       stroke="#dde0ed"
       vector-effect="non-scaling-stroke"
       d="   M 364.42 339.08   C 360.11 342.98 353.19 344.23 347.64 344.98   A 2.32 2.31 -21.2 0 1 345.41 344.00   L 339.99 336.24"
       id="path14" />
    <path
       stroke="#ced2e4"
       vector-effect="non-scaling-stroke"
       d="   M 364.48 370.53   Q 361.82 363.91 356.74 360.14"
       id="path15" />
    <path
       stroke="#dde0ed"
       vector-effect="non-scaling-stroke"
       d="   M 175.83 321.46   C 172.01 318.55 167.24 323.26 164.85 325.32   Q 164.46 325.65 164.07 325.32   Q 160.88 322.67 158.86 319.03"
       id="path16" />
    <path
       stroke="#dde0ed"
       vector-effect="non-scaling-stroke"
       d="   M 337.70 319.19   C 336.35 320.84 334.62 324.98 332.00 325.26   A 1.22 1.18 -27.6 0 1 331.12 325.00   Q 326.56 321.38 320.60 320.22"
       id="path17" />
    <path
       stroke="#dde0ed"
       vector-effect="non-scaling-stroke"
       d="   M 139.24 357.49   Q 130.30 358.40 129.82 350.24"
       id="path18" />
    <path
       stroke="#dde0ed"
       vector-effect="non-scaling-stroke"
       d="   M 121.71 343.62   Q 121.02 342.77 121.03 341.10   Q 121.04 340.57 120.74 340.13   Q 118.67 337.07 117.73 333.03"
       id="path19" />
    <path
       stroke="#dde0ed"
       vector-effect="non-scaling-stroke"
       d="   M 307.07 342.76   Q 302.88 344.30 298.83 347.72"
       id="path20" />
    <path
       stroke="#dde0ed"
       vector-effect="non-scaling-stroke"
       d="   M 196.70 348.37   L 187.90 342.59"
       id="path21" />
    <path
       stroke="#dde0ed"
       vector-effect="non-scaling-stroke"
       d="   M 199.78 383.83   L 194.48 399.36   A 1.66 1.66 0.0 0 1 192.28 400.36   C 177.01 394.10 159.48 385.98 147.10 374.75   Q 146.82 374.50 146.45 374.50   L 146.03 374.50   Q 145.69 374.50 145.55 374.19   Q 144.43 371.79 141.48 371.29"
       id="path22" />
    <path
       stroke="#dde0ed"
       vector-effect="non-scaling-stroke"
       d="   M 213.61 354.59   Q 209.40 352.31 204.71 351.47"
       id="path23" />
    <path
       stroke="#dde0ed"
       vector-effect="non-scaling-stroke"
       d="   M 290.04 350.35   L 281.48 354.11"
       id="path24" />
    <path
       stroke="#dde0ed"
       vector-effect="non-scaling-stroke"
       d="   M 230.67 358.58   L 221.38 356.68"
       id="path25" />
    <path
       stroke="#dde0ed"
       vector-effect="non-scaling-stroke"
       d="   M 273.29 356.61   Q 268.56 357.07 264.25 358.95"
       id="path26" />
    <path
       stroke="#dde0ed"
       vector-effect="non-scaling-stroke"
       d="   M 256.45 359.36   Q 253.46 367.11 248.49 368.22   Q 243.38 369.35 240.28 364.59   A 1.10 1.07 77.8 0 0 239.56 364.11   L 237.82 363.82"
       id="path27" />
    <path
       stroke="#dde0ed"
       vector-effect="non-scaling-stroke"
       d="   M 206.50 404.90   Q 233.83 413.12 259.82 410.30   C 285.04 407.55 306.45 401.40 327.84 387.90   Q 328.24 387.64 328.27 387.16   Q 328.31 386.45 327.59 386.36"
       id="path28" />
    <path
       stroke="#dde0ed"
       vector-effect="non-scaling-stroke"
       d="   M 259.0173 328.5099   A 1.50 0.82 -36.4 0 0 257.3234 328.7400   A 1.50 0.82 -36.4 0 0 256.6027 330.2901   A 1.50 0.82 -36.4 0 0 258.2966 330.0600   A 1.50 0.82 -36.4 0 0 259.0173 328.5099"
       id="path29" />
  </g>
  <path
     fill="#ffffff"
     d="   M 245.94 95.36   A 0.55 0.55 0.0 0 0 246.80 95.38   Q 257.20 82.92 272.52 89.45   Q 280.82 92.98 282.62 102.07   Q 282.74 102.72 282.08 102.72   L 269.89 102.80   Q 269.35 102.81 269.03 102.37   C 261.31 91.89 250.13 106.19 258.67 112.73   Q 263.06 116.09 268.18 112.42   A 1.12 1.08 26.8 0 1 268.86 112.21   L 281.22 112.57   A 0.69 0.68 14.9 0 1 281.81 113.58   C 275.28 125.79 260.53 129.29 249.53 120.51   Q 249.11 120.17 248.87 120.65   C 246.85 124.76 241.58 126.59 238.91 122.10   C 235.51 116.38 240.14 106.51 236.58 101.18   C 234.47 98.01 228.38 98.22 226.68 101.92   C 225.11 105.35 225.72 116.56 225.74 118.51   C 225.80 127.07 214.92 126.71 214.79 117.89   C 214.64 107.10 212.30 93.49 225.20 88.53   Q 237.31 83.88 245.94 95.36   Z"
     id="path30" />
  <path
     fill="#ffffff"
     d="m 328.23675,112.91673 a 23.49,23.49 0 0 1 -23.49,23.49 23.49,23.49 0 0 1 -23.49,-23.49 23.49,23.49 0 0 1 23.49,-23.490002 23.49,23.49 0 0 1 23.49,23.490002 z m -11,0.3 a 12.49,12.49 0 0 0 -12.49,-12.49 12.49,12.49 0 0 0 -12.49,12.49 12.49,12.49 0 0 0 12.49,12.49 12.49,12.49 0 0 0 12.49,-12.49 z"
     id="path31" />
  <path
     fill="#ffffff"
     d="m 188.61656,121.95007 c 4.55,2.91 10.85,1.17 13.4,-3.49 q 1.3,-2.37 1.27,-7.07 -0.07,-10.66 0.02,-21.359996 0,-0.49 0.49,-0.49 h 10.46 a 0.5,0.5 0 0 1 0.5,0.5 c 0.07,9.67 1.35,23.829996 -1.65,31.849996 -6.6,17.63 -32.52,16.65 -39.13,-0.59 -2.96,-7.75 -1.45,-22.219996 -1.48,-31.229996 q 0,-0.53 0.53,-0.53 h 10.5 a 1,0.99 0 0 1 1,0.99 q 0,7.39 0.01,14.909996 c 0,5.61 -1.61,12.87 4.08,16.51 z"
     id="path32" />
  <ellipse
     fill="#ffffff"
     cx="0.00"
     cy="0.00"
     transform="translate(375.18,118.44) rotate(2.5)"
     rx="9.21"
     ry="8.84"
     id="ellipse32" />
  <circle
     fill="#ffffff"
     cx="121.75"
     cy="118.49"
     r="8.84"
     id="circle32" />
  <ellipse
     fill="#ffffff"
     cx="0.00"
     cy="0.00"
     transform="translate(144.37,116.07) rotate(5.8)"
     rx="5.60"
     ry="5.25"
     id="ellipse33" />
  <ellipse
     fill="#ffffff"
     cx="0.00"
     cy="0.00"
     transform="translate(352.22,116.06) rotate(5.6)"
     rx="5.54"
     ry="5.19"
     id="ellipse34" />
  <path
     fill="#ffffff"
     d="   M 354.27 134.41   C 353.70 129.22 359.54 127.89 362.80 131.25   C 366.73 135.30 371.23 139.42 374.66 143.32   C 394.50 165.91 406.90 191.48 411.92 221.18   C 412.99 227.57 411.31 227.64 405.68 227.51   A 1.48 1.47 -4.0 0 1 404.26 226.28   Q 400.05 200.49 387.84 177.43   C 379.23 161.17 367.37 147.89 354.67 135.24   Q 354.33 134.89 354.27 134.41   Z"
     id="path34" />
  <path
     fill="#ffffff"
     d="   M 135.62 130.29   C 138.37 128.04 142.75 131.04 142.36 134.06   Q 142.17 135.49 140.29 137.35   C 130.78 146.74 120.94 157.00 114.09 168.54   C 103.02 187.17 95.45 205.06 92.57 226.67   A 0.91 0.91 0.0 0 1 91.69 227.46   C 89.16 227.56 83.37 228.71 84.05 224.26   C 86.01 211.33 89.07 202.02 92.86 190.95   C 100.42 168.84 117.47 145.10 135.62 130.29   Z"
     id="path35" />
  <path
     fill="#ffffff"
     d="   M 225.53 135.72   C 244.78 132.98 269.23 133.18 286.89 141.33   C 290.50 143.00 291.34 147.73 287.13 149.36   A 1.45 1.45 0.0 0 1 286.18 149.39   C 260.05 140.88 236.05 139.48 209.96 148.75   C 206.01 150.15 203.03 146.30 204.96 142.96   C 207.15 139.20 221.27 136.33 225.53 135.72   Z"
     id="path36" />
  <path
     fill="#ffffff"
     d="   M 340.75 145.75   C 338.53 142.92 342.47 138.44 345.76 139.55   Q 347.04 139.98 349.57 142.27   C 365.70 156.85 379.49 175.23 387.10 195.69   Q 393.36 212.53 396.03 230.21   A 2.30 2.28 65.4 0 1 395.26 232.31   Q 391.15 235.89 388.36 240.60   A 0.39 0.38 -30.7 0 1 387.64 240.42   C 386.82 211.06 375.51 183.79 356.17 161.67   C 352.02 156.93 344.89 151.03 340.75 145.75   Z"
     id="path37" />
  <path
     fill="#ffffff"
     d="   M 141.38 160.55   C 127.97 176.08 117.47 194.40 112.79 214.47   Q 109.75 227.54 108.51 240.93   Q 108.43 241.84 107.98 241.05   Q 105.04 235.89 100.80 231.75   Q 100.40 231.36 100.47 230.81   C 104.65 199.02 119.87 167.22 144.02 145.29   C 147.91 141.75 154.88 146.11 151.71 150.19   C 149.24 153.36 144.33 157.15 141.38 160.55   Z"
     id="path38" />
  <circle
     fill="#bac1da"
     cx="199.36"
     cy="154.92"
     r="4.82"
     id="circle38" />
  <circle
     fill="#bac1da"
     cx="297.50"
     cy="154.95"
     r="4.91"
     id="circle39" />
  <path
     fill="#ffffff"
     d="   M 163.23 152.23   C 167.60 148.62 175.03 153.33 169.43 158.09   Q 149.95 174.67 138.72 197.48   C 135.17 204.70 132.43 214.60 130.68 221.70   Q 122.19 256.13 134.02 289.34   C 135.21 292.67 133.15 296.52 129.28 295.57   C 126.44 294.88 125.51 291.17 124.68 288.56   Q 117.49 266.09 118.48 244.24   C 120.07 209.48 136.13 174.57 163.23 152.23   Z"
     id="path39" />
  <path
     fill="#ffffff"
     d="   M 336.83 155.81   L 331.20 161.33   Q 326.91 159.36 325.73 155.66   A 1.23 1.20 -44.3 0 1 325.75 154.86   C 328.51 147.51 333.67 152.18 336.83 155.81   Z"
     id="path40" />
  <circle
     fill="#ffffff"
     cx="248.18"
     cy="156.25"
     r="3.83"
     id="circle40" />
  <path
     fill="#bac1da"
     d="   M 336.83 155.81   L 343.68 162.26   A 1.61 1.61 0.0 0 1 343.77 164.51   L 340.60 168.00   A 1.07 1.07 0.0 0 1 339.11 168.09   L 331.20 161.33   L 336.83 155.81   Z"
     id="path41" />
  <circle
     fill="#bac1da"
     cx="313.28"
     cy="162.30"
     r="4.98"
     id="circle41" />
  <circle
     fill="#bac1da"
     cx="183.23"
     cy="162.28"
     r="4.98"
     id="circle42" />
  <circle
     fill="#ffffff"
     cx="220.46"
     cy="161.63"
     r="3.80"
     id="circle43" />
  <circle
     fill="#ffffff"
     cx="275.69"
     cy="161.61"
     r="3.93"
     id="circle44" />
  <path
     fill="#ffffff"
     d="   M 271.26 186.38   L 194.28 227.51   L 172.66 215.75   Q 172.14 215.46 172.62 215.12   Q 176.50 212.28 178.30 211.29   Q 212.66 192.16 247.23 173.41   Q 247.67 173.17 248.11 173.42   L 271.26 186.38   Z"
     id="path44" />
  <ellipse
     fill="#ffffff"
     cx="0.00"
     cy="0.00"
     transform="translate(164.33,178.14) rotate(-1.1)"
     rx="4.93"
     ry="4.65"
     id="ellipse44" />
  <ellipse
     fill="#ffffff"
     cx="0.00"
     cy="0.00"
     transform="translate(332.10,178.13) rotate(-3.7)"
     rx="4.98"
     ry="4.64"
     id="ellipse45" />
  <path
     fill="#ffffff"
     d="   M 365.69 290.81   Q 363.31 289.69 364.05 286.25   Q 365.61 278.99 367.01 271.65   C 372.44 243.09 367.37 210.95 351.46 186.76   Q 347.77 181.15 347.04 179.45   C 345.83 176.61 349.16 174.29 351.87 174.44   C 355.43 174.63 359.95 182.81 361.54 185.95   C 377.58 217.52 382.69 251.33 372.56 286.03   C 371.54 289.52 369.81 292.75 365.69 290.81   Z"
     id="path45" />
  <circle
     fill="#ffffff"
     cx="192.65"
     cy="178.47"
     r="2.43"
     id="circle45" />
  <circle
     fill="#ffffff"
     cx="304.16"
     cy="178.48"
     r="2.24"
     id="circle46" />
  <path
     fill="#bac1da"
     d="   M 271.26 186.38   L 273.15 187.62   Q 273.86 188.08 273.12 188.48   L 197.23 228.73   Q 196.75 228.98 196.29 228.71   L 194.28 227.51   L 271.26 186.38   Z"
     id="path46" />
  <rect
     fill="#e1e3ee"
     x="-43.28"
     y="-0.51"
     transform="translate(243.42,213.84) rotate(-28.3)"
     width="86.56"
     height="1.02"
     rx="0.36"
     id="rect46" />
  <path
     fill="#ffffff"
     d="   M 150.74 195.51   A 3.34 3.34 0.0 0 1 155.41 194.78   L 157.99 196.67   A 7.41 7.34 36.2 0 1 159.63 206.97   L 159.56 207.06   A 7.41 7.34 36.2 0 1 149.24 208.61   L 146.67 206.73   A 3.34 3.34 0.0 0 1 145.95 202.06   L 150.74 195.51   Z"
     id="path47" />
  <path
     fill="#ffffff"
     d="   M 338.27 208.78   C 327.71 200.04 345.53 184.83 350.72 204.70   Q 350.83 205.11 350.53 205.41   C 347.16 208.71 342.47 212.25 338.27 208.78   Z"
     id="path48" />
  <path
     fill="#ffffff"
     d="   M 313.55 209.69   L 236.08 251.76   L 215.35 239.77   Q 214.85 239.48 215.35 239.18   C 240.50 224.25 267.48 211.53 288.07 199.08   C 291.46 197.03 292.44 196.91 295.99 199.04   Q 304.54 204.17 313.55 209.69   Z"
     id="path49" />
  <path
     fill="#bac1da"
     d="   M 313.55 209.69   L 315.89 211.08   Q 316.55 211.47 315.88 211.83   L 239.34 253.13   Q 238.87 253.39 238.40 253.12   L 236.08 251.76   L 313.55 209.69   Z"
     id="path50" />
  <path
     fill="#ffffff"
     d="   M 142.31 211.94   A 0.44 0.44 0.0 0 1 142.90 211.72   L 144.58 212.49   A 9.87 1.37 24.4 0 1 153.00 217.81   L 151.97 220.09   A 9.87 1.37 24.4 0 1 142.42 217.26   L 140.73 216.50   A 0.44 0.44 0.0 0 1 140.51 215.91   L 142.31 211.94   Z"
     id="path51" />
  <path
     fill="#ffffff"
     d="   M 355.53 215.26   A 1.10 1.10 0.0 0 1 355.00 216.73   L 354.89 216.78   A 11.04 1.52 -25.1 0 1 344.25 220.08   L 343.29 218.02   A 11.04 1.52 -25.1 0 1 352.64 211.96   L 352.75 211.91   A 1.10 1.10 0.0 0 1 354.21 212.44   L 355.53 215.26   Z"
     id="path52" />
  <path
     fill="#bac1da"
     d="   M 254.26 256.33   L 254.48 326.66   Q 254.48 327.31 255.05 327.00   L 309.87 297.36   A 1.18 1.16 -8.8 0 0 310.45 296.58   C 312.95 284.49 317.24 272.44 317.25 260.00   Q 317.27 241.20 317.70 221.40   L 319.03 220.57   A 0.29 0.29 0.0 0 1 319.48 220.82   L 319.51 300.54   Q 319.51 301.14 318.97 301.39   C 316.26 302.70 313.49 303.96 311.05 305.39   Q 281.27 322.81 251.18 339.67   A 0.49 0.49 0.0 0 1 250.45 339.24   L 250.60 258.80   A 0.74 0.73 -14.6 0 1 250.98 258.16   L 254.26 256.33   Z   M 259.0173 328.5099   A 1.50 0.82 -36.4 0 0 257.3234 328.7400   A 1.50 0.82 -36.4 0 0 256.6027 330.2901   A 1.50 0.82 -36.4 0 0 258.2966 330.0600   A 1.50 0.82 -36.4 0 0 259.0173 328.5099   Z"
     id="path53" />
  <path
     fill="#ffffff"
     d="   M 317.70 221.40   Q 317.27 241.20 317.25 260.00   C 317.24 272.44 312.95 284.49 310.45 296.58   A 1.18 1.16 -8.8 0 1 309.87 297.36   L 255.05 327.00   Q 254.48 327.31 254.48 326.66   L 254.26 256.33   L 317.70 221.40   Z   M 302.11 286.23   A 0.30 0.30 0.0 0 0 301.97 286.50   L 302.07 289.30   A 0.30 0.30 0.0 0 0 302.52 289.55   L 308.07 286.52   A 0.30 0.30 0.0 0 0 308.22 286.23   L 307.93 283.19   A 0.30 0.30 0.0 0 0 307.47 282.96   L 302.11 286.23   Z   M 293.37 292.24   A 0.31 0.31 0.0 0 0 293.21 292.51   L 293.35 301.56   A 0.31 0.31 0.0 0 0 293.81 301.83   L 299.56 298.64   A 0.31 0.31 0.0 0 0 299.72 298.36   L 299.42 289.31   A 0.31 0.31 0.0 0 0 298.95 289.05   L 293.37 292.24   Z   M 302.41 292.84   A 0.33 0.33 0.0 0 0 302.25 293.13   L 302.25 296.66   A 0.33 0.33 0.0 0 0 302.75 296.95   L 307.84 293.97   A 0.33 0.33 0.0 0 0 308.00 293.68   L 308.00 290.05   A 0.33 0.33 0.0 0 0 307.50 289.76   L 302.41 292.84   Z   M 282.39 298.04   A 0.34 0.34 0.0 0 0 282.22 298.34   L 282.33 307.22   A 0.34 0.34 0.0 0 0 282.85 307.51   L 290.41 303.05   A 0.34 0.34 0.0 0 0 290.58 302.75   L 290.22 294.18   A 0.34 0.34 0.0 0 0 289.72 293.89   L 282.39 298.04   Z"
     id="path54" />
  <path
     fill="#ffffff"
     d="   M 227.75 259.02   L 214.38 269.34   A 0.47 0.47 0.0 0 1 213.86 269.38   L 176.99 248.57   A 0.47 0.47 0.0 0 1 176.75 248.17   L 176.75 230.24   A 0.47 0.47 0.0 0 1 177.45 229.83   L 227.69 258.24   A 0.47 0.47 0.0 0 1 227.75 259.02   Z"
     id="path55" />
  <circle
     fill="#ffffff"
     cx="138.45"
     cy="232.66"
     r="2.13"
     id="circle55" />
  <circle
     fill="#ffffff"
     cx="357.25"
     cy="232.70"
     r="2.25"
     id="circle56" />
  <path
     fill="#ffffff"
     d="   M 419.49 241.56   Q 417.97 258.75 402.81 260.36   Q 401.64 260.48 399.79 259.96   Q 398.13 259.49 396.66 259.66   C 391.75 250.21 395.56 240.18 406.10 238.00   Q 413.26 236.52 419.49 241.56   Z"
     id="path56" />
  <path
     fill="#ffffff"
     d="   M 98.16 243.30   L 95.05 253.36   A 1.87 1.83 -12.7 0 1 94.54 254.15   C 92.23 256.22 90.39 258.82 87.54 259.88   C 84.28 261.09 81.44 261.76 77.98 260.31   Q 75.93 259.45 73.72 259.07   C 69.33 250.17 73.22 240.01 83.36 238.05   Q 92.28 236.31 98.16 243.30   Z"
     id="path57" />
  <path
     fill="#bac1da"
     d="   M 419.49 241.56   C 434.50 257.88 410.11 277.51 396.66 259.66   Q 398.13 259.49 399.79 259.96   Q 401.64 260.48 402.81 260.36   Q 417.97 258.75 419.49 241.56   Z"
     id="path58" />
  <path
     fill="#bac1da"
     d="   M 98.16 243.30   C 109.50 260.89 85.87 276.64 73.72 259.07   Q 75.93 259.45 77.98 260.31   C 81.44 261.76 84.28 261.09 87.54 259.88   C 90.39 258.82 92.23 256.22 94.54 254.15   A 1.87 1.83 -12.7 0 0 95.05 253.36   L 98.16 243.30   Z"
     id="path59" />
  <ellipse
     fill="#ffffff"
     cx="0.00"
     cy="0.00"
     transform="translate(138.57,253.45) rotate(91.9)"
     rx="4.78"
     ry="4.48"
     id="ellipse59" />
  <circle
     fill="#ffffff"
     cx="357.87"
     cy="253.43"
     r="4.72"
     id="circle59" />
  <path
     fill="#ffffff"
     d="   M 217.24 283.81   Q 221.93 285.84 226.42 280.14   C 229.69 275.98 233.11 271.98 236.39 267.72   L 240.73 263.99   Q 241.25 263.54 241.25 264.23   L 241.25 338.56   Q 241.25 339.10 240.79 338.82   L 177.18 301.20   A 0.87 0.86 -75.0 0 1 176.75 300.45   L 176.75 261.00   Q 176.75 260.40 177.27 260.70   L 217.24 283.81   Z"
     id="path60" />
  <path
     fill="#ffffff"
     d="   M 123.42 314.25   C 123.52 318.18 117.33 322.16 115.47 317.79   C 109.37 303.41 103.95 291.80 100.79 274.78   A 0.76 0.76 0.0 0 1 100.96 274.14   L 107.94 265.60   A 0.40 0.40 0.0 0 1 108.64 265.80   C 110.83 281.36 114.53 296.07 121.89 310.07   Q 123.38 312.89 123.42 314.25   Z"
     id="path61" />
  <path
     fill="#ffffff"
     d="   M 392.11 289.90   L 386.98 288.20   L 384.98 287.28   Q 384.58 287.10 384.65 286.66   L 387.61 265.96   Q 387.65 265.68 387.84 265.89   L 395.36 274.29   Q 395.71 274.69 395.59 275.20   L 392.11 289.90   Z"
     id="path62" />
  <path
     fill="#bac1da"
     d="   M 236.39 267.72   C 233.11 271.98 229.69 275.98 226.42 280.14   Q 221.93 285.84 217.24 283.81   Q 226.27 275.00 236.39 267.72   Z"
     id="path63" />
  <path
     fill="#ffffff"
     d="   M 152.56 274.46   L 152.50 277.05   A 0.90 0.88 82.9 0 1 151.87 277.88   Q 146.62 279.48 142.06 282.54   A 0.77 0.77 0.0 0 1 141.07 282.41   L 139.33 280.45   L 137.50 273.54   A 1.03 1.03 0.0 0 1 138.01 272.38   C 142.36 270.06 151.21 266.89 152.56 274.46   Z"
     id="path64" />
  <path
     fill="#ffffff"
     d="   M 358.59 272.80   L 355.58 281.53   A 1.02 1.02 0.0 0 1 354.11 282.08   Q 349.36 279.31 343.86 277.81   C 343.35 273.82 344.61 269.39 349.39 269.78   Q 354.48 270.19 358.59 272.80   Z"
     id="path65" />
  <path
     fill="#bac1da"
     d="   M 358.59 272.80   Q 358.54 279.14 355.73 284.13   Q 355.49 284.57 355.02 284.38   Q 350.11 282.38 345.07 280.86   C 343.43 280.37 342.97 279.29 343.86 277.81   Q 349.36 279.31 354.11 282.08   A 1.02 1.02 0.0 0 0 355.58 281.53   L 358.59 272.80   Z"
     id="path66" />
  <path
     fill="#bac1da"
     d="   M 152.56 274.46   L 153.36 279.80   A 0.58 0.57 76.8 0 1 152.97 280.43   L 141.06 284.41   A 0.53 0.52 -17.3 0 1 140.38 284.06   L 139.33 280.45   L 141.07 282.41   A 0.77 0.77 0.0 0 0 142.06 282.54   Q 146.62 279.48 151.87 277.88   A 0.90 0.88 82.9 0 0 152.50 277.05   L 152.56 274.46   Z"
     id="path67" />
  <path
     fill="#ffffff"
     d="   M 86.80 291.29   C 85.56 284.62 93.28 282.79 95.11 289.32   Q 100.44 308.32 110.04 325.59   A 0.92 0.91 47.7 0 1 110.00 326.54   Q 107.92 329.63 104.50 331.28   A 1.88 1.88 0.0 0 1 102.08 330.58   C 98.27 324.41 95.43 318.74 93.00 311.51   C 90.41 303.78 87.92 297.34 86.80 291.29   Z"
     id="path68" />
  <path
     fill="#29354d"
     d="   M 386.98 288.20   L 392.11 289.90   L 391.24 290.02   Q 390.83 290.08 390.93 290.48   Q 391.82 294.25 388.85 296.97   A 0.84 0.83 -55.9 0 1 387.99 297.14   L 383.42 295.46   A 0.82 0.82 0.0 0 1 382.90 294.81   Q 382.07 289.17 386.98 288.20   Z"
     id="path69" />
  <path
     fill="#ffffff"
     d="   M 160.36 299.03   Q 156.12 304.54 152.50 304.96   Q 148.99 305.36 142.64 303.50   Q 141.76 298.39 144.99 295.10   Q 148.06 291.97 152.24 292.26   Q 157.49 292.62 160.36 299.03   Z"
     id="path70" />
  <path
     fill="#ffffff"
     d="   M 353.22 299.18   Q 348.07 306.14 342.17 304.61   Q 337.13 303.30 335.41 303.23   C 334.39 296.29 341.09 289.59 348.13 293.25   Q 351.95 295.23 353.22 299.18   Z"
     id="path71" />
  <path
     fill="#e1e3ee"
     d="   M 160.36 299.03   C 161.80 312.35 145.86 315.83 142.64 303.50   Q 148.99 305.36 152.50 304.96   Q 156.12 304.54 160.36 299.03   Z"
     id="path72" />
  <path
     fill="#e1e3ee"
     d="   M 353.22 299.18   C 355.00 312.54 339.02 315.52 335.41 303.23   Q 337.13 303.30 342.17 304.61   Q 348.07 306.14 353.22 299.18   Z"
     id="path73" />
  <path
     fill="#ffffff"
     d="   M 384.21 309.60   L 373.81 327.35   Q 362.57 327.38 364.42 339.08   C 360.11 342.98 353.19 344.23 347.64 344.98   A 2.32 2.31 -21.2 0 1 345.41 344.00   L 339.99 336.24   C 349.03 324.51 357.07 314.24 363.65 301.22   A 0.62 0.61 -67.3 0 1 364.39 300.91   Q 373.96 304.07 384.21 309.60   Z"
     id="path74" />
  <path
     fill="#e1e3ee"
     d="   M 364.48 370.53   Q 361.82 363.91 356.74 360.14   Q 364.53 353.01 371.39 344.58   Q 371.73 344.16 372.25 344.02   Q 379.68 342.02 379.35 334.23   Q 379.33 333.70 379.68 333.31   C 386.72 325.40 392.36 314.55 396.87 305.02   C 399.56 299.33 407.57 302.24 404.98 308.80   C 396.15 331.11 382.62 354.10 364.48 370.53   Z"
     id="path75" />
  <path
     fill="#bac1da"
     d="   M 384.21 309.60   Q 385.04 309.60 384.02 311.76   Q 380.32 319.59 373.81 327.35   L 384.21 309.60   Z"
     id="path76" />
  <path
     fill="#ffffff"
     d="   M 175.83 321.46   C 172.01 318.55 167.24 323.26 164.85 325.32   Q 164.46 325.65 164.07 325.32   Q 160.88 322.67 158.86 319.03   C 161.05 315.38 164.38 312.02 168.97 312.49   Q 175.98 313.20 175.83 321.46   Z"
     id="path77" />
  <path
     fill="#ffffff"
     d="   M 337.70 319.19   C 336.35 320.84 334.62 324.98 332.00 325.26   A 1.22 1.18 -27.6 0 1 331.12 325.00   Q 326.56 321.38 320.60 320.22   Q 320.83 316.52 323.08 314.32   C 328.38 309.15 334.46 314.87 337.70 319.19   Z"
     id="path78" />
  <path
     fill="#ffffff"
     d="   M 139.24 357.49   Q 130.30 358.40 129.82 350.24   C 134.47 343.39 126.61 338.79 121.71 343.62   Q 121.02 342.77 121.03 341.10   Q 121.04 340.57 120.74 340.13   Q 118.67 337.07 117.73 333.03   L 139.83 317.49   Q 140.22 317.22 140.51 317.59   L 153.45 334.18   Q 153.76 334.58 153.49 335.00   L 139.24 357.49   Z"
     id="path79" />
  <path
     fill="#bac1da"
     d="   M 158.86 319.03   Q 160.88 322.67 164.07 325.32   Q 164.46 325.65 164.85 325.32   C 167.24 323.26 172.01 318.55 175.83 321.46   C 172.79 325.82 166.68 332.95 161.10 327.93   Q 156.90 324.14 158.86 319.03   Z"
     id="path80" />
  <path
     fill="#bac1da"
     d="   M 337.70 319.19   Q 339.88 327.15 332.02 329.78   C 327.48 331.30 321.95 323.82 320.60 320.22   Q 326.56 321.38 331.12 325.00   A 1.22 1.18 -27.6 0 0 332.00 325.26   C 334.62 324.98 336.35 320.84 337.70 319.19   Z"
     id="path81" />
  <ellipse
     fill="#ffffff"
     cx="0.00"
     cy="0.00"
     transform="translate(257.81,329.40) rotate(-36.4)"
     rx="1.50"
     ry="0.82"
     id="ellipse81" />
  <path
     fill="#bac1da"
     d="   M 117.73 333.03   Q 118.67 337.07 120.74 340.13   Q 121.04 340.57 121.03 341.10   Q 121.02 342.77 121.71 343.62   C 119.34 348.66 124.82 352.93 129.82 350.24   Q 130.30 358.40 139.24 357.49   L 131.41 370.15   A 1.73 1.73 0.0 0 1 128.76 370.50   Q 115.60 358.11 105.72 342.96   Q 105.39 342.47 105.86 342.11   L 117.73 333.03   Z"
     id="path82" />
  <circle
     fill="#e1e3ee"
     cx="173.72"
     cy="337.46"
     r="3.33"
     id="circle82" />
  <ellipse
     fill="#e1e3ee"
     cx="0.00"
     cy="0.00"
     transform="translate(321.64,337.38) rotate(84.0)"
     rx="3.39"
     ry="3.03"
     id="ellipse82" />
  <path
     fill="#ffffff"
     d="   M 307.07 342.76   Q 302.88 344.30 298.83 347.72   L 295.46 341.80   A 2.33 2.33 0.0 0 1 295.74 339.10   Q 298.20 336.32 301.87 335.74   A 0.87 0.86 68.8 0 1 302.75 336.13   L 307.07 342.76   Z"
     id="path83" />
  <path
     fill="#ffffff"
     d="   M 196.70 348.37   L 187.90 342.59   C 188.65 340.84 190.21 337.86 191.18 336.90   C 193.97 334.12 201.55 338.43 199.57 342.03   Q 197.78 345.29 196.70 348.37   Z"
     id="path84" />
  <path
     fill="#bac1da"
     d="   M 339.99 336.24   L 345.41 344.00   A 2.32 2.31 -21.2 0 0 347.64 344.98   C 353.19 344.23 360.11 342.98 364.42 339.08   Q 364.95 340.81 363.92 341.67   Q 357.72 346.88 350.06 352.91   A 1.84 1.84 0.0 0 1 347.38 352.47   L 338.38 338.73   Q 338.10 338.31 338.36 337.87   Q 338.91 336.91 339.99 336.24   Z"
     id="path85" />
  <path
     fill="#bac1da"
     d="   M 187.90 342.59   L 196.70 348.37   L 194.78 352.56   Q 194.49 353.19 193.89 352.85   L 185.04 347.86   Q 184.44 347.52 184.83 346.96   L 187.90 342.59   Z"
     id="path86" />
  <path
     fill="#bac1da"
     d="   M 307.07 342.76   Q 309.09 344.75 309.71 346.87   Q 309.88 347.46 309.35 347.77   L 301.48 352.45   A 0.62 0.61 -25.9 0 1 300.59 352.15   L 298.83 347.72   Q 302.88 344.30 307.07 342.76   Z"
     id="path87" />
  <path
     fill="#ffffff"
     d="   M 199.78 383.83   L 194.48 399.36   A 1.66 1.66 0.0 0 1 192.28 400.36   C 177.01 394.10 159.48 385.98 147.10 374.75   Q 146.82 374.50 146.45 374.50   L 146.03 374.50   Q 145.69 374.50 145.55 374.19   Q 144.43 371.79 141.48 371.29   L 158.54 343.89   A 1.21 1.21 0.0 0 1 160.27 343.54   C 174.17 353.36 187.61 361.50 203.88 366.74   A 1.06 1.05 -72.5 0 1 204.56 368.05   L 199.78 383.83   Z   M 164.98 367.48   A 4.36 4.36 0.0 0 0 160.62 363.12   A 4.36 4.36 0.0 0 0 156.26 367.48   A 4.36 4.36 0.0 0 0 160.62 371.84   A 4.36 4.36 0.0 0 0 164.98 367.48   Z   M 185.94 377.48   A 7.61 7.61 0.0 0 0 178.33 369.87   A 7.61 7.61 0.0 0 0 170.72 377.48   A 7.61 7.61 0.0 0 0 178.33 385.09   A 7.61 7.61 0.0 0 0 185.94 377.48   Z"
     id="path88" />
  <path
     fill="#ffffff"
     d="   M 213.61 354.59   Q 209.40 352.31 204.71 351.47   L 208.35 343.92   A 0.64 0.63 23.2 0 1 209.14 343.61   L 215.74 346.11   Q 216.33 346.34 216.13 346.93   L 213.61 354.59   Z"
     id="path89" />
  <path
     fill="#ffffff"
     d="   M 290.04 350.35   L 281.48 354.11   L 279.21 346.91   A 0.67 0.65 -27.8 0 1 279.45 346.17   Q 282.42 344.01 286.06 343.68   Q 286.64 343.62 286.91 344.15   L 290.04 350.35   Z"
     id="path90" />
  <path
     fill="#ffffff"
     d="   M 230.67 358.58   L 221.38 356.68   L 223.59 349.82   A 0.55 0.55 0.0 0 1 224.24 349.46   L 231.77 351.25   Q 232.39 351.40 232.24 352.01   L 230.67 358.58   Z"
     id="path91" />
  <path
     fill="#ffffff"
     d="   M 273.29 356.61   Q 268.56 357.07 264.25 358.95   L 262.54 351.75   Q 262.42 351.23 262.94 351.12   L 270.46 349.45   Q 271.00 349.33 271.17 349.85   L 273.29 356.61   Z"
     id="path92" />
  <path
     fill="#bac1da"
     d="   M 290.04 350.35   L 292.31 355.71   Q 292.57 356.30 291.97 356.55   L 283.40 360.15   Q 282.88 360.37 282.75 359.82   L 281.48 354.11   L 290.04 350.35   Z"
     id="path93" />
  <path
     fill="#bac1da"
     d="   M 204.71 351.47   Q 209.40 352.31 213.61 354.59   L 212.08 360.01   A 0.54 0.53 -70.7 0 1 211.37 360.36   L 202.94 356.96   A 0.71 0.70 23.6 0 1 202.56 356.01   L 204.71 351.47   Z"
     id="path94" />
  <path
     fill="#ffffff"
     d="   M 256.45 359.36   Q 253.46 367.11 248.49 368.22   Q 243.38 369.35 240.28 364.59   A 1.10 1.07 77.8 0 0 239.56 364.11   L 237.82 363.82   C 238.44 360.16 239.57 356.98 242.95 355.07   Q 250.44 350.83 256.45 359.36   Z"
     id="path95" />
  <path
     fill="#ffffff"
     d="   M 316.24 354.24   C 319.45 352.39 323.43 356.73 321.66 360.19   C 319.86 363.71 305.13 369.21 300.98 371.11   Q 281.75 379.90 260.77 382.29   A 0.37 0.37 0.0 0 1 260.43 381.71   L 266.49 373.02   A 0.86 0.84 -77.9 0 1 266.99 372.69   C 285.34 368.87 300.42 363.40 316.24 354.24   Z"
     id="path96" />
  <path
     fill="#bac1da"
     d="   M 221.38 356.68   L 230.67 358.58   L 229.78 364.18   Q 229.69 364.77 229.10 364.66   L 220.57 362.97   A 0.76 0.76 0.0 0 1 219.98 362.03   L 221.38 356.68   Z"
     id="path97" />
  <path
     fill="#bac1da"
     d="   M 273.29 356.61   L 274.72 361.94   A 0.64 0.63 -14.2 0 1 274.24 362.73   L 265.83 364.57   Q 265.25 364.70 265.14 364.10   L 264.25 358.95   Q 268.56 357.07 273.29 356.61   Z"
     id="path98" />
  <path
     fill="#bac1da"
     d="   M 256.45 359.36   C 263.52 375.41 238.80 382.42 237.82 363.82   L 239.56 364.11   A 1.10 1.07 77.8 0 1 240.28 364.59   Q 243.38 369.35 248.49 368.22   Q 253.46 367.11 256.45 359.36   Z"
     id="path99" />
  <path
     fill="#bac1da"
     d="   M 356.74 360.14   Q 361.82 363.91 364.48 370.53   C 361.15 375.59 355.89 365.64 353.96 363.15   Q 353.61 362.71 354.05 362.35   L 356.74 360.14   Z"
     id="path100" />
  <rect
     fill="#e1e3ee"
     x="-4.76"
     y="-14.00"
     transform="translate(335.82,375.75) rotate(-34.5)"
     width="9.52"
     height="28.00"
     rx="4.50"
     id="rect100" />
  <path
     fill="#ffffff"
     d="   M 234.01 382.15   C 230.04 382.01 208.99 381.45 213.32 373.08   C 215.27 369.29 223.22 372.12 226.71 372.63   Q 227.18 372.70 227.47 373.08   L 234.17 381.84   Q 234.42 382.16 234.01 382.15   Z"
     id="path101" />
  <path
     fill="#bac1da"
     d="   M 141.48 371.29   Q 144.43 371.79 145.55 374.19   Q 145.69 374.50 146.03 374.50   L 146.45 374.50   Q 146.82 374.50 147.10 374.75   C 159.48 385.98 177.01 394.10 192.28 400.36   A 1.66 1.66 0.0 0 0 194.48 399.36   L 199.78 383.83   L 194.05 405.80   A 1.37 1.37 0.0 0 1 192.44 406.79   C 181.22 404.42 165.92 396.59 157.91 391.10   C 151.39 386.65 144.55 383.02 138.80 377.53   A 0.94 0.94 0.0 0 1 138.63 376.40   L 141.48 371.29   Z"
     id="path102" />
  <path
     fill="#e1e3ee"
     d="   M 285.75 395.73   C 280.44 397.36 279.28 389.85 282.36 386.64   A 1.54 1.54 0.0 0 1 283.18 386.20   C 293.51 384.15 301.44 380.25 313.03 375.23   C 317.33 373.37 320.76 379.45 317.56 383.33   C 316.34 384.83 311.50 385.83 309.57 386.68   Q 296.75 392.37 285.75 395.73   Z"
     id="path103" />
  <path
     fill="#bac1da"
     d="   M 206.50 404.90   Q 233.83 413.12 259.82 410.30   C 285.04 407.55 306.45 401.40 327.84 387.90   Q 328.24 387.64 328.27 387.16   Q 328.31 386.45 327.59 386.36   C 333.12 385.48 338.39 390.74 332.51 394.49   C 319.47 402.82 305.39 408.50 290.46 412.78   C 262.69 420.74 231.56 420.43 204.00 413.23   C 200.95 412.43 199.75 409.02 201.76 406.51   Q 203.63 404.19 206.50 404.90   Z"
     id="path104" />
  <path
     fill="#ffffff"
     d="   M 327.59 386.36   Q 328.31 386.45 328.27 387.16   Q 328.24 387.64 327.84 387.90   C 306.45 401.40 285.04 407.55 259.82 410.30   Q 233.83 413.12 206.50 404.90   Q 230.37 407.99 236.57 408.44   C 265.44 410.50 293.98 403.95 319.74 390.42   Q 323.78 388.29 327.59 386.36   Z"
     id="path105" />
  <path
     fill="#e1e3ee"
     d="   M 264.50 389.68   C 272.51 388.70 275.09 398.19 266.88 399.23   Q 240.42 402.59 214.27 397.38   Q 214.17 397.36 212.30 397.08   C 204.66 395.94 205.80 385.62 214.23 387.43   Q 239.15 392.76 264.50 389.68   Z"
     id="path106" />
</svg>
