<?xml version="1.0" encoding="UTF-8" standalone="no"?>
<!DOCTYPE svg PUBLIC "-//W3C//DTD SVG 1.1//EN" "http://www.w3.org/Graphics/SVG/1.1/DTD/svg11.dtd">
<svg xmlns="http://www.w3.org/2000/svg" version="1.1" viewBox="0.00 0.00 500.00 500.00">
<g stroke-width="2.00" fill="none" stroke-linecap="butt">
<path stroke="#e2ca7f" vector-effect="non-scaling-stroke" d="
  M 197.08 196.22
  Q 162.31 177.76 146.67 141.51"
/>
<path stroke="#f3de95" vector-effect="non-scaling-stroke" d="
  M 146.67 141.51
  Q 141.13 129.94 137.99 117.17
  Q 137.86 116.66 137.35 116.54
  C 134.75 115.91 130.56 117.70 128.95 116.09"
/>
<path stroke="#ddc177" vector-effect="non-scaling-stroke" d="
  M 146.67 141.51
  L 138.40 145.28"
/>
<path stroke="#c7bb81" stroke-opacity="0.639" vector-effect="non-scaling-stroke" d="
  M 149.28 175.63
  L 140.71 167.55"
/>
<path stroke="#99a795" vector-effect="non-scaling-stroke" d="
  M 140.71 167.55
  L 136.38 162.23"
/>
<path stroke="#e2ca7f" vector-effect="non-scaling-stroke" d="
  M 136.38 162.23
  C 134.52 158.93 131.77 155.81 130.07 153.09
  Q 122.51 140.96 116.66 127.59"
/>
<path stroke="#f3de95" vector-effect="non-scaling-stroke" d="
  M 116.66 127.59
  L 112.18 112.38
  Q 112.04 111.90 111.63 111.61
  Q 108.98 109.68 105.77 109.36
  Q 105.25 109.31 105.24 108.79
  L 105.13 104.21"
/>
<path stroke="#315674" stroke-opacity="0.639" vector-effect="non-scaling-stroke" d="
  M 140.71 167.55
  L 139.09 167.00
  A 0.53 0.53 0.0 0 0 138.46 167.77
  Q 141.88 173.59 147.59 177.30
  A 1.22 1.21 3.8 0 1 148.04 177.81
  Q 148.46 178.71 148.99 178.78"
/>
<path stroke="#305b7d" vector-effect="non-scaling-stroke" d="
  M 148.99 178.78
  Q 149.09 179.20 148.96 179.62
  Q 148.79 180.14 148.39 179.76
  Q 145.99 177.55 142.87 176.63
  Q 142.35 176.48 142.00 176.07
  L 137.80 171.23"
/>
<path stroke="#ddc177" vector-effect="non-scaling-stroke" d="
  M 116.66 127.59
  L 109.49 133.05"
/>
<path stroke="#838a77" vector-effect="non-scaling-stroke" d="
  M 136.38 162.23
  L 133.52 161.72"
/>
<path stroke="#7d7757" stroke-opacity="0.878" vector-effect="non-scaling-stroke" d="
  M 133.52 161.72
  L 132.74 161.26"
/>
<path stroke="#a58d52" stroke-opacity="0.639" vector-effect="non-scaling-stroke" d="
  M 132.74 161.26
  Q 132.04 160.04 131.38 159.78"
/>
<path stroke="#a58d52" stroke-opacity="0.639" vector-effect="non-scaling-stroke" d="
  M 127.29 162.24
  L 127.15 163.35"
/>
<path stroke="#294f70" stroke-opacity="0.878" vector-effect="non-scaling-stroke" d="
  M 133.52 161.72
  C 133.18 164.07 136.38 169.47 137.80 171.23"
/>
<path stroke="#1f415e" stroke-opacity="0.878" vector-effect="non-scaling-stroke" d="
  M 137.80 171.23
  Q 138.17 172.50 136.36 173.69"
/>
<path stroke="#35759e" vector-effect="non-scaling-stroke" d="
  M 157.27 185.93
  Q 162.27 192.21 168.97 196.80
  Q 172.78 199.41 181.33 206.42
  C 187.50 211.47 197.13 217.21 204.57 224.01
  Q 207.72 226.89 211.16 229.55"
/>
<path stroke="#e2ca7f" vector-effect="non-scaling-stroke" d="
  M 416.73 134.63
  Q 412.91 140.92 409.27 146.91
  C 403.68 156.12 397.70 162.68 389.98 169.40
  C 381.65 176.64 370.49 182.72 360.71 188.97
  Q 357.86 190.80 349.54 193.90"
/>
<path stroke="#73725a" vector-effect="non-scaling-stroke" d="
  M 394.76 170.25
  L 396.27 168.19
  Q 396.79 167.49 396.05 167.95
  Q 394.90 168.68 394.02 169.99"
/>
<path stroke="#c7bb81" stroke-opacity="0.639" vector-effect="non-scaling-stroke" d="
  M 140.97 189.04
  L 136.51 186.23"
/>
<path stroke="#898f78" vector-effect="non-scaling-stroke" d="
  M 111.59 163.41
  L 109.43 160.42"
/>
<path stroke="#e2ca7f" vector-effect="non-scaling-stroke" d="
  M 109.43 160.42
  Q 98.62 145.69 93.01 127.97
  A 0.86 0.85 -19.9 0 0 91.87 127.44
  L 89.96 128.23
  Q 89.84 128.28 89.81 128.19
  Q 89.78 128.09 89.77 127.99
  A 0.10 0.10 0.0 0 0 89.57 127.99
  Q 89.56 128.77 89.25 129.30"
/>
<path stroke="#73725a" vector-effect="non-scaling-stroke" d="
  M 109.43 160.42
  Q 109.61 162.12 110.94 164.03"
/>
<path stroke="#a58d52" stroke-opacity="0.639" vector-effect="non-scaling-stroke" d="
  M 131.17 192.44
  Q 130.91 192.88 130.01 192.74"
/>
<path stroke="#f3de95" vector-effect="non-scaling-stroke" d="
  M 89.16 162.13
  Q 89.36 162.97 88.47 162.48
  Q 88.05 162.24 87.64 162.52
  L 84.83 164.44"
/>
<path stroke="#ddc177" vector-effect="non-scaling-stroke" d="
  M 84.83 164.44
  Q 82.72 161.03 78.88 160.10"
/>
<path stroke="#e2ca7f" vector-effect="non-scaling-stroke" d="
  M 84.83 164.44
  Q 95.57 181.37 111.15 193.66
  C 116.44 197.83 123.77 201.96 129.99 206.30"
/>
<path stroke="#838a77" vector-effect="non-scaling-stroke" d="
  M 129.99 206.30
  Q 130.03 206.50 129.46 206.56"
/>
<path stroke="#a58d52" stroke-opacity="0.639" vector-effect="non-scaling-stroke" d="
  M 129.46 206.56
  Q 129.13 206.44 128.90 206.52
  Q 128.38 206.72 128.59 207.23
  L 132.71 217.22"
/>
<path stroke="#909b85" vector-effect="non-scaling-stroke" d="
  M 143.78 212.85
  L 134.95 209.10"
/>
<path stroke="#99a795" vector-effect="non-scaling-stroke" d="
  M 134.95 209.10
  L 129.99 206.30"
/>
<path stroke="#305b7d" vector-effect="non-scaling-stroke" d="
  M 134.95 209.10
  L 143.26 213.34"
/>
<path stroke="#305b7d" vector-effect="non-scaling-stroke" d="
  M 150.37 218.00
  Q 149.55 219.37 150.27 219.12"
/>
<path stroke="#294f70" stroke-opacity="0.878" vector-effect="non-scaling-stroke" d="
  M 150.27 219.12
  L 149.64 219.87"
/>
<path stroke="#305b7d" vector-effect="non-scaling-stroke" d="
  M 149.64 219.87
  Q 151.88 223.55 151.19 225.89"
/>
<path stroke="#315674" stroke-opacity="0.639" vector-effect="non-scaling-stroke" d="
  M 137.68 217.30
  L 129.46 206.56"
/>
<path stroke="#35759e" vector-effect="non-scaling-stroke" d="
  M 186.24 234.38
  Q 192.81 239.15 200.29 242.69"
/>
<path stroke="#214360" vector-effect="non-scaling-stroke" d="
  M 200.29 242.69
  Q 200.18 242.91 200.73 243.09
  Q 201.28 243.27 200.75 243.25
  Q 200.62 243.25 200.49 243.25
  Q 200.00 243.26 200.00 243.75
  L 200.00 244.82
  Q 200.00 245.48 200.61 245.72
  Q 204.48 247.30 203.18 248.92"
/>
<path stroke="#1f415e" stroke-opacity="0.878" vector-effect="non-scaling-stroke" d="
  M 149.64 219.87
  C 150.75 220.66 152.57 222.92 153.43 223.21
  Q 155.12 223.77 154.74 221.80
  A 1.18 1.18 0.0 0 0 154.10 220.96
  L 150.27 219.12"
/>
<path stroke="#2f6890" vector-effect="non-scaling-stroke" d="
  M 200.74 242.33
  Q 200.32 242.57 200.29 242.69"
/>
<path stroke="#e2ca7f" vector-effect="non-scaling-stroke" d="
  M 418.27 168.56
  L 417.65 168.17
  Q 417.34 167.99 417.52 167.68
  L 417.68 167.42
  A 0.10 0.10 0.0 0 0 417.64 167.28
  Q 417.48 167.21 417.36 167.35
  C 411.20 174.37 404.94 182.52 396.78 187.46"
/>
<path stroke="#969879" stroke-opacity="0.878" vector-effect="non-scaling-stroke" d="
  M 396.78 187.46
  L 382.72 194.29"
/>
<path stroke="#909b85" vector-effect="non-scaling-stroke" d="
  M 382.72 194.29
  L 364.91 199.23"
/>
<path stroke="#7d7757" stroke-opacity="0.878" vector-effect="non-scaling-stroke" d="
  M 403.12 186.89
  Q 403.80 186.03 403.74 185.46
  A 0.50 0.50 0.0 0 0 403.10 185.03
  L 401.95 185.39"
/>
<path stroke="#7d7757" stroke-opacity="0.878" vector-effect="non-scaling-stroke" d="
  M 397.62 187.64
  Q 397.19 187.43 396.78 187.46"
/>
<path stroke="#1f415e" stroke-opacity="0.878" vector-effect="non-scaling-stroke" d="
  M 381.85 199.06
  L 382.72 194.29"
/>
<path stroke="#f3de95" vector-effect="non-scaling-stroke" d="
  M 191.57 160.20
  Q 190.60 161.23 191.21 161.57
  C 206.63 170.22 221.15 178.83 233.00 193.14"
/>
<path stroke="#ddc177" vector-effect="non-scaling-stroke" d="
  M 233.00 193.14
  Q 232.36 193.31 232.84 194.38
  Q 233.03 194.81 232.64 195.07
  C 231.11 196.08 228.76 197.29 230.00 199.17
  Q 230.05 199.24 230.00 199.31
  Q 229.94 199.39 229.85 199.51
  A 0.03 0.03 0.0 0 1 229.80 199.51
  Q 228.67 197.34 227.19 197.30"
/>
<path stroke="#e2ca7f" vector-effect="non-scaling-stroke" d="
  M 234.87 194.00
  Q 233.84 194.33 233.00 193.14"
/>
<path stroke="#d6bc73" vector-effect="non-scaling-stroke" d="
  M 344.03 177.18
  Q 331.42 177.50 320.05 184.05
  Q 306.56 191.82 295.67 202.09"
/>
<path stroke="#e2ca7f" vector-effect="non-scaling-stroke" d="
  M 414.56 192.35
  Q 414.05 191.92 413.59 191.81
  Q 413.17 191.72 412.66 192.14
  C 404.70 198.81 398.05 204.61 387.75 209.65"
/>
<path stroke="#99a795" vector-effect="non-scaling-stroke" d="
  M 387.75 209.65
  L 377.98 212.65"
/>
<path stroke="#c7bb81" stroke-opacity="0.639" vector-effect="non-scaling-stroke" d="
  M 377.98 212.65
  L 366.01 215.73"
/>
<path stroke="#898f78" vector-effect="non-scaling-stroke" d="
  M 366.01 215.73
  Q 364.47 215.93 364.78 215.27"
/>
<path stroke="#193046" stroke-opacity="0.639" vector-effect="non-scaling-stroke" d="
  M 366.27 216.66
  Q 366.21 216.50 365.95 216.45
  Q 365.66 216.40 365.80 216.14
  L 366.01 215.73"
/>
<path stroke="#838a77" vector-effect="non-scaling-stroke" d="
  M 392.09 210.23
  Q 389.48 210.69 387.75 209.65"
/>
<path stroke="#2a4f70" vector-effect="non-scaling-stroke" d="
  M 369.39 220.39
  C 369.82 218.58 369.63 216.77 367.60 216.77
  Q 366.88 216.77 366.27 216.66"
/>
<path stroke="#315674" stroke-opacity="0.639" vector-effect="non-scaling-stroke" d="
  M 366.27 216.66
  Q 368.34 215.61 369.88 216.79
  Q 370.26 217.08 370.73 217.19
  Q 376.67 218.52 379.74 213.20
  Q 379.97 212.79 379.50 212.76
  L 377.98 212.65"
/>
<path stroke="#e2ca7f" vector-effect="non-scaling-stroke" d="
  M 343.09 189.90
  L 341.16 189.77
  A 1.06 1.06 0.0 0 0 340.40 190.02
  C 335.46 194.20 330.25 197.71 326.25 202.70
  Q 323.17 206.55 320.02 210.89"
/>
<path stroke="#898f78" vector-effect="non-scaling-stroke" d="
  M 138.26 234.47
  L 127.83 231.68"
/>
<path stroke="#99a795" vector-effect="non-scaling-stroke" d="
  M 127.83 231.68
  L 115.30 226.50"
/>
<path stroke="#e2ca7f" vector-effect="non-scaling-stroke" d="
  M 115.30 226.50
  C 108.88 222.40 101.74 219.02 95.98 214.59
  Q 89.77 209.80 83.77 204.75
  Q 83.42 204.46 82.97 204.48
  L 81.44 204.53"
/>
<path stroke="#2a4f70" vector-effect="non-scaling-stroke" d="
  M 127.83 231.68
  L 138.32 235.35"
/>
<path stroke="#83a1b8" vector-effect="non-scaling-stroke" d="
  M 142.32 236.63
  Q 141.42 236.64 141.01 236.92
  A 0.37 0.36 -53.0 0 0 141.10 237.57
  L 147.45 239.63"
/>
<path stroke="#2a4f70" vector-effect="non-scaling-stroke" d="
  M 147.45 239.63
  Q 146.20 241.71 146.03 243.32"
/>
<path stroke="#838a77" vector-effect="non-scaling-stroke" d="
  M 115.30 226.50
  L 115.51 227.51
  Q 115.64 228.16 114.98 228.19
  L 113.20 228.28"
/>
<path stroke="#73725a" vector-effect="non-scaling-stroke" d="
  M 113.20 228.28
  Q 110.72 226.87 108.17 225.33
  Q 107.99 225.23 107.81 225.24
  Q 107.46 225.27 107.76 225.47
  L 117.98 232.01"
/>
<path stroke="#73889b" vector-effect="non-scaling-stroke" d="
  M 167.99 243.96
  L 147.45 239.63"
/>
<path stroke="#2a4f70" vector-effect="non-scaling-stroke" d="
  M 113.20 228.28
  L 118.53 231.43"
/>
<path stroke="#f3de95" vector-effect="non-scaling-stroke" d="
  M 235.41 228.21
  Q 228.82 216.20 219.90 208.04
  Q 219.53 207.70 219.03 207.70
  L 216.61 207.70"
/>
<path stroke="#d0b36b" vector-effect="non-scaling-stroke" d="
  M 257.46 277.87
  Q 255.83 278.19 254.18 276.26
  C 250.90 272.42 246.41 269.51 244.02 266.21
  Q 232.03 249.61 227.41 231.80
  Q 226.11 226.83 226.24 232.01
  Q 226.33 236.05 225.17 240.43
  Q 224.88 241.50 223.70 241.22"
/>
<path stroke="#bead74" stroke-opacity="0.639" vector-effect="non-scaling-stroke" d="
  M 371.21 238.93
  L 358.30 242.01"
/>
<path stroke="#848670" vector-effect="non-scaling-stroke" d="
  M 358.30 242.01
  Q 357.02 242.13 357.26 241.55"
/>
<path stroke="#193046" stroke-opacity="0.639" vector-effect="non-scaling-stroke" d="
  M 366.50 244.27
  Q 362.34 241.47 356.80 243.25
  A 0.25 0.25 0.0 0 1 356.62 242.78
  L 358.30 242.01"
/>
<path stroke="#9cb3c6" vector-effect="non-scaling-stroke" d="
  M 330.10 323.57
  Q 329.92 323.52 329.78 323.50
  Q 329.49 323.46 329.39 323.19
  Q 328.36 320.30 326.44 318.22"
/>
<path stroke="#e5ecf1" vector-effect="non-scaling-stroke" d="
  M 326.44 318.22
  Q 326.94 313.94 325.97 309.61
  A 0.41 0.41 0.0 0 0 325.16 309.63
  Q 324.91 311.14 323.68 312.42
  Q 323.36 312.75 322.79 312.24"
/>
<path stroke="#8c9aa8" vector-effect="non-scaling-stroke" d="
  M 322.31 308.76
  L 321.60 303.78
  Q 321.48 302.90 321.27 303.77
  L 320.17 308.24"
/>
<path stroke="#8c9aa8" vector-effect="non-scaling-stroke" d="
  M 314.75 321.59
  Q 310.06 328.61 302.96 333.62"
/>
<path stroke="#93a7b6" vector-effect="non-scaling-stroke" d="
  M 302.96 333.62
  Q 303.19 331.71 304.34 330.88"
/>
<path stroke="#e5ecf1" vector-effect="non-scaling-stroke" d="
  M 304.34 330.88
  C 309.58 323.97 312.26 313.79 311.26 305.22
  Q 311.16 304.36 310.72 305.11
  L 305.62 313.88"
/>
<path stroke="#8c9aa8" vector-effect="non-scaling-stroke" d="
  M 305.74 299.02
  L 306.27 289.91
  A 0.12 0.12 0.0 0 0 306.04 289.87
  L 303.65 298.25"
/>
<path stroke="#e5ecf1" vector-effect="non-scaling-stroke" d="
  M 297.07 311.08
  Q 297.89 305.22 297.28 299.45
  A 0.07 0.07 0.0 0 0 297.15 299.43
  Q 295.88 303.65 292.37 304.37"
/>
<path stroke="#e5ecf1" vector-effect="non-scaling-stroke" d="
  M 282.76 301.31
  L 284.45 289.53
  Q 284.67 287.99 283.78 289.27
  L 279.31 295.68
  A 0.85 0.85 0.0 0 1 277.95 295.73
  L 277.72 295.45"
/>
<path stroke="#e5ecf1" vector-effect="non-scaling-stroke" d="
  M 281.15 283.79
  C 281.77 280.26 285.42 275.99 287.62 273.16
  Q 287.70 273.06 287.73 272.94
  Q 287.82 272.54 287.57 272.51
  Q 287.26 272.46 287.07 272.70
  Q 284.31 276.01 280.80 277.08"
/>
<path stroke="#e5ecf1" vector-effect="non-scaling-stroke" d="
  M 275.17 272.76
  Q 280.40 265.09 287.05 259.57
  Q 287.68 259.05 286.86 259.06
  C 282.57 259.10 279.31 261.72 276.51 264.84
  Q 276.12 265.29 275.77 264.80
  L 275.54 264.47"
/>
<path stroke="#8c9aa8" vector-effect="non-scaling-stroke" d="
  M 296.01 251.08
  L 300.34 249.92
  Q 300.45 249.89 300.48 249.83
  Q 300.50 249.79 300.50 249.75
  Q 300.50 249.59 300.29 249.61
  L 295.72 249.94"
/>
<path stroke="#214360" vector-effect="non-scaling-stroke" d="
  M 298.64 336.22
  L 302.96 333.62"
/>
<path stroke="#2a4f70" vector-effect="non-scaling-stroke" d="
  M 292.59 356.45
  Q 294.21 354.53 296.30 353.16
  C 308.06 345.43 317.15 333.41 321.20 320.16"
/>
<path stroke="#7a95a8" vector-effect="non-scaling-stroke" d="
  M 304.34 330.88
  L 304.77 322.67"
/>
<path stroke="#83a1b8" vector-effect="non-scaling-stroke" d="
  M 326.44 318.22
  L 322.87 313.12"
/>
<path stroke="#c7bb81" stroke-opacity="0.639" vector-effect="non-scaling-stroke" d="
  M 155.02 259.08
  Q 145.58 258.80 136.59 256.91"
/>
<path stroke="#e2ca7f" vector-effect="non-scaling-stroke" d="
  M 136.59 256.91
  Q 115.85 253.33 96.81 243.69
  Q 95.28 242.91 93.48 243.92"
/>
<path stroke="#a58d52" stroke-opacity="0.639" vector-effect="non-scaling-stroke" d="
  M 136.59 256.91
  L 134.92 259.54"
/>
<path stroke="#73725a" vector-effect="non-scaling-stroke" d="
  M 134.05 259.26
  L 128.24 257.20
  A 0.19 0.19 0.0 0 0 128.10 257.56
  L 134.30 260.20"
/>
<path stroke="#315674" stroke-opacity="0.639" vector-effect="non-scaling-stroke" d="
  M 153.15 259.82
  Q 150.29 258.43 146.96 263.03"
/>
<path stroke="#2a4f70" vector-effect="non-scaling-stroke" d="
  M 177.05 262.26
  Q 173.16 263.27 169.03 263.15
  C 166.24 263.06 162.71 261.61 159.19 261.76
  Q 158.43 261.80 158.88 262.40
  L 162.84 267.80"
/>
<path stroke="#214360" vector-effect="non-scaling-stroke" d="
  M 203.06 263.39
  Q 201.83 261.76 200.16 262.89
  Q 199.79 263.15 199.71 263.59
  L 199.37 265.56
  Q 199.26 266.19 198.62 266.21
  Q 194.15 266.29 192.06 263.23"
/>
<path stroke="#f3de95" vector-effect="non-scaling-stroke" d="
  M 354.56 252.67
  C 353.66 256.39 355.88 258.07 358.94 259.82
  C 363.86 262.63 365.01 269.36 364.54 275.30
  Q 364.50 275.84 365.03 275.76
  L 365.45 275.69"
/>
<path stroke="#ddc177" vector-effect="non-scaling-stroke" d="
  M 344.22 266.24
  L 345.73 261.01"
/>
<path stroke="#ddc177" vector-effect="non-scaling-stroke" d="
  M 344.50 259.26
  Q 343.61 258.86 342.93 257.50"
/>
<path stroke="#d6bc73" vector-effect="non-scaling-stroke" d="
  M 161.70 281.18
  Q 140.10 281.61 119.30 275.32
  C 118.15 274.98 116.34 273.56 114.98 274.55"
/>
<path stroke="#767c6b" vector-effect="non-scaling-stroke" d="
  M 161.74 281.90
  Q 158.15 280.98 155.54 283.92"
/>
<path stroke="#67634d" vector-effect="non-scaling-stroke" d="
  M 155.54 283.92
  Q 154.21 283.06 153.26 283.29
  Q 152.53 283.46 153.16 283.87
  Q 154.48 284.74 156.26 284.98"
/>
<path stroke="#91763e" stroke-opacity="0.639" vector-effect="non-scaling-stroke" d="
  M 156.26 284.98
  L 159.17 286.13"
/>
<path stroke="#67634d" vector-effect="non-scaling-stroke" d="
  M 159.17 286.13
  L 170.36 289.64"
/>
<path stroke="#315674" stroke-opacity="0.639" vector-effect="non-scaling-stroke" d="
  M 160.49 285.38
  L 156.52 284.16"
/>
<path stroke="#2a4f70" vector-effect="non-scaling-stroke" d="
  M 156.52 284.16
  Q 156.17 283.96 155.54 283.92"
/>
<path stroke="#193046" stroke-opacity="0.639" vector-effect="non-scaling-stroke" d="
  M 156.52 284.16
  Q 156.13 284.34 156.26 284.98"
/>
<path stroke="#193046" stroke-opacity="0.639" vector-effect="non-scaling-stroke" d="
  M 160.53 285.57
  Q 161.29 285.98 159.17 286.13"
/>
<path stroke="#214360" vector-effect="non-scaling-stroke" d="
  M 172.56 287.56
  L 160.53 285.57"
/>
<path stroke="#23435b" stroke-opacity="0.639" vector-effect="non-scaling-stroke" d="
  M 160.53 285.57
  Q 160.51 285.47 160.49 285.38"
/>
<path stroke="#305b7d" vector-effect="non-scaling-stroke" d="
  M 160.49 285.38
  C 163.38 284.82 165.95 283.84 168.91 283.69
  Q 176.61 283.27 183.95 281.03"
/>
<path stroke="#2a4f70" vector-effect="non-scaling-stroke" d="
  M 214.12 286.90
  Q 209.35 285.92 203.29 286.39"
/>
<path stroke="#67634d" vector-effect="non-scaling-stroke" d="
  M 193.45 294.72
  Q 190.43 293.54 186.22 293.83"
/>
<path stroke="#67634d" vector-effect="non-scaling-stroke" d="
  M 212.51 307.06
  Q 211.36 306.83 210.47 307.06
  Q 209.78 307.24 210.44 307.50
  Q 211.42 307.90 212.76 307.85"
/>
<path stroke="#8a927d" vector-effect="non-scaling-stroke" d="
  M 195.78 350.71
  L 197.42 349.14
  A 1.11 1.04 -21.1 0 0 197.75 348.45
  Q 197.83 347.46 197.26 347.89"
/>
<path stroke="#214360" vector-effect="non-scaling-stroke" d="
  M 262.72 338.55
  Q 261.01 336.76 259.22 338.48
  C 251.57 345.81 249.90 353.84 249.39 364.24
  Q 249.38 364.39 249.24 364.43
  Q 249.09 364.47 248.94 364.52
  Q 248.47 364.67 248.44 364.17
  Q 247.89 354.50 249.40 343.96"
/>
<path stroke="#939e8d" vector-effect="non-scaling-stroke" d="
  M 171.95 345.31
  Q 158.76 348.81 143.62 348.25
  A 0.08 0.08 0.0 0 1 143.60 348.09
  Q 160.58 344.42 176.24 337.98
  Q 181.52 335.81 184.70 333.87"
/>
<path stroke="#e2ca7f" vector-effect="non-scaling-stroke" d="
  M 342.07 378.93
  L 340.72 379.35"
/>
<path stroke="#d6bc73" vector-effect="non-scaling-stroke" d="
  M 340.72 379.35
  L 335.83 377.16"
/>
<path stroke="#c09f55" vector-effect="non-scaling-stroke" d="
  M 335.44 377.77
  L 339.90 380.15
  Q 340.34 380.38 340.57 379.94
  Q 340.70 379.70 340.72 379.35"
/>
<path stroke="#e2ca7f" vector-effect="non-scaling-stroke" d="
  M 354.85 383.61
  L 359.08 390.80"
/>
<path stroke="#e2ca7f" vector-effect="non-scaling-stroke" d="
  M 352.42 388.75
  Q 351.33 384.57 347.93 383.08
  A 0.47 0.47 0.0 0 0 347.28 383.60
  L 348.65 390.08"
/>
<path stroke="#e2ca7f" vector-effect="non-scaling-stroke" d="
  M 285.35 384.87
  Q 283.32 384.37 281.07 382.42
  Q 277.96 379.72 273.27 373.95"
/>
<path stroke="#e2ca7f" vector-effect="non-scaling-stroke" d="
  M 293.44 388.22
  Q 299.07 392.46 299.30 395.92"
/>
<path stroke="#e2ca7f" vector-effect="non-scaling-stroke" d="
  M 287.85 391.26
  L 282.46 387.36
  A 0.73 0.73 0.0 0 0 281.36 388.26
  L 284.67 395.41"
/>
<path stroke="#ddc177" vector-effect="non-scaling-stroke" d="
  M 179.06 398.08
  Q 178.91 396.48 178.34 395.54
  C 177.51 394.14 177.16 393.80 177.78 392.38
  Q 177.96 391.98 177.60 391.73
  C 176.70 391.11 177.38 388.16 175.51 386.63
  Q 175.19 386.37 175.41 386.03
  Q 175.71 385.54 175.65 384.64"
/>
<path stroke="#e2ca7f" vector-effect="non-scaling-stroke" d="
  M 330.01 381.11
  Q 334.39 387.69 334.25 392.04"
/>
<path stroke="#17334f" stroke-opacity="0.878" vector-effect="non-scaling-stroke" d="
  M 166.67 265.77
  C 169.81 266.28 171.95 266.82 174.83 265.74
  A 1.25 1.25 0.0 0 0 174.41 263.32
  L 166.87 263.22
  A 1.31 1.31 0.0 0 0 165.55 264.43
  Q 165.46 265.57 166.67 265.77"
/>
</g>
<path fill="#f8e79d" d="
  M 197.08 196.22
  Q 162.31 177.76 146.67 141.51
  Q 141.13 129.94 137.99 117.17
  Q 137.86 116.66 137.35 116.54
  C 134.75 115.91 130.56 117.70 128.95 116.09
  Q 123.59 88.61 133.45 62.85
  A 0.14 0.14 0.0 0 1 133.72 62.90
  C 133.04 94.15 143.67 121.53 159.27 147.99
  C 163.56 155.26 169.58 162.81 174.97 170.19
  C 181.65 179.34 189.94 187.22 197.08 196.22
  Z"
/>
<path fill="#f8e79d" d="
  M 149.28 175.63
  L 140.71 167.55
  L 136.38 162.23
  C 134.52 158.93 131.77 155.81 130.07 153.09
  Q 122.51 140.96 116.66 127.59
  L 112.18 112.38
  Q 112.04 111.90 111.63 111.61
  Q 108.98 109.68 105.77 109.36
  Q 105.25 109.31 105.24 108.79
  L 105.13 104.21
  Q 105.67 87.93 112.06 71.78
  A 0.24 0.24 0.0 0 1 112.53 71.90
  C 109.03 100.74 120.01 125.35 133.69 149.13
  C 139.23 158.75 146.22 168.02 153.63 176.16
  Q 155.93 178.68 157.96 181.38
  A 0.22 0.22 0.0 0 1 157.66 181.69
  L 149.28 175.63
  Z"
/>
<path fill="#f8e79d" d="
  M 416.73 134.63
  Q 412.91 140.92 409.27 146.91
  C 403.68 156.12 397.70 162.68 389.98 169.40
  C 381.65 176.64 370.49 182.72 360.71 188.97
  Q 357.86 190.80 349.54 193.90
  Q 360.00 181.51 364.52 178.26
  C 391.77 158.68 412.71 136.59 415.36 101.37
  A 0.13 0.13 0.0 0 1 415.62 101.34
  Q 420.25 118.36 416.73 134.63
  Z"
/>
<path fill="#f8e79d" d="
  M 140.97 189.04
  L 136.51 186.23
  C 124.66 177.18 119.18 172.74 111.59 163.41
  L 109.43 160.42
  Q 98.62 145.69 93.01 127.97
  A 0.86 0.85 -19.9 0 0 91.87 127.44
  L 89.96 128.23
  Q 89.84 128.28 89.81 128.19
  Q 89.78 128.09 89.77 127.99
  A 0.10 0.10 0.0 0 0 89.57 127.99
  Q 89.56 128.77 89.25 129.30
  C 88.79 121.72 89.33 111.74 92.03 103.71
  Q 92.43 102.54 92.55 103.77
  C 94.59 124.68 102.45 140.98 113.77 158.21
  C 121.78 170.39 131.41 179.16 140.97 189.04
  Z"
/>
<path fill="#edd58d" d="
  M 105.13 104.21
  L 105.24 108.79
  Q 105.25 109.31 105.77 109.36
  Q 108.98 109.68 111.63 111.61
  Q 112.04 111.90 112.18 112.38
  L 116.66 127.59
  L 109.49 133.05
  Q 104.15 118.81 105.13 104.21
  Z"
/>
<path fill="#edd58d" d="
  M 128.95 116.09
  C 130.56 117.70 134.75 115.91 137.35 116.54
  Q 137.86 116.66 137.99 117.17
  Q 141.13 129.94 146.67 141.51
  L 138.40 145.28
  Q 132.08 130.66 128.95 116.09
  Z"
/>
<path fill="#ccad61" d="
  M 109.43 160.42
  Q 109.61 162.12 110.94 164.03
  C 114.57 174.58 123.11 185.20 131.17 192.44
  Q 130.91 192.88 130.01 192.74
  Q 117.19 185.16 107.22 174.04
  C 96.92 162.55 88.76 145.24 89.25 129.30
  Q 89.56 128.77 89.57 127.99
  A 0.10 0.10 0.0 0 1 89.77 127.99
  Q 89.78 128.09 89.81 128.19
  Q 89.84 128.28 89.96 128.23
  L 91.87 127.44
  A 0.86 0.85 -19.9 0 1 93.01 127.97
  Q 98.62 145.69 109.43 160.42
  Z"
/>
<path fill="#ccad61" d="
  M 116.66 127.59
  Q 122.51 140.96 130.07 153.09
  C 131.77 155.81 134.52 158.93 136.38 162.23
  L 133.52 161.72
  L 132.74 161.26
  Q 132.04 160.04 131.38 159.78
  L 128.12 156.30
  A 0.64 0.64 0.0 0 0 127.02 156.77
  L 127.29 162.24
  L 127.15 163.35
  Q 125.67 162.30 124.42 160.32
  C 122.44 157.21 119.62 154.20 117.88 150.97
  Q 113.05 141.98 109.49 133.05
  L 116.66 127.59
  Z"
/>
<path fill="#ccad61" d="
  M 416.73 134.63
  C 413.22 152.98 402.71 170.44 386.70 181.22
  A 0.28 0.27 5.6 0 1 386.35 180.80
  Q 391.14 176.18 394.76 170.25
  L 396.27 168.19
  Q 396.79 167.49 396.05 167.95
  Q 394.90 168.68 394.02 169.99
  C 380.69 180.05 364.00 192.67 347.93 197.49
  A 0.59 0.59 0.0 0 1 347.31 196.55
  L 349.54 193.90
  Q 357.86 190.80 360.71 188.97
  C 370.49 182.72 381.65 176.64 389.98 169.40
  C 397.70 162.68 403.68 156.12 409.27 146.91
  Q 412.91 140.92 416.73 134.63
  Z"
/>
<path fill="#edd58d" d="
  M 89.16 162.13
  Q 89.36 162.97 88.47 162.48
  Q 88.05 162.24 87.64 162.52
  L 84.83 164.44
  Q 82.72 161.03 78.88 160.10
  Q 77.55 150.42 78.15 140.30
  A 0.31 0.30 38.9 0 1 78.75 140.24
  Q 82.12 152.06 89.16 162.13
  Z"
/>
<path fill="#ccad61" d="
  M 146.67 141.51
  Q 162.31 177.76 197.08 196.22
  Q 201.30 200.72 204.32 206.73
  Q 204.63 207.37 204.03 207.00
  C 186.96 196.50 177.50 190.36 164.18 179.36
  C 153.09 170.21 144.68 157.95 138.40 145.28
  L 146.67 141.51
  Z"
/>
<path fill="#f8e79d" d="
  M 418.27 168.56
  L 417.65 168.17
  Q 417.34 167.99 417.52 167.68
  L 417.68 167.42
  A 0.10 0.10 0.0 0 0 417.64 167.28
  Q 417.48 167.21 417.36 167.35
  C 411.20 174.37 404.94 182.52 396.78 187.46
  L 382.72 194.29
  L 364.91 199.23
  Q 376.21 194.92 385.80 188.29
  C 393.14 183.21 401.05 178.22 406.92 171.93
  C 413.86 164.50 421.21 154.90 424.91 145.90
  A 0.24 0.23 -29.8 0 1 425.36 146.02
  Q 423.59 157.71 418.27 168.56
  Z"
/>
<path fill="#edd58d" d="
  M 191.57 160.20
  Q 190.60 161.23 191.21 161.57
  C 206.63 170.22 221.15 178.83 233.00 193.14
  Q 232.36 193.31 232.84 194.38
  Q 233.03 194.81 232.64 195.07
  C 231.11 196.08 228.76 197.29 230.00 199.17
  Q 230.05 199.24 230.00 199.31
  Q 229.94 199.39 229.85 199.51
  A 0.03 0.03 0.0 0 1 229.80 199.51
  Q 228.67 197.34 227.19 197.30
  Q 218.28 187.64 207.54 180.04
  C 204.82 178.11 200.51 176.47 197.84 172.88
  C 193.15 166.56 187.44 161.62 181.33 156.74
  Q 180.59 156.15 181.52 156.32
  Q 186.86 157.27 191.57 160.20
  Z"
/>
<path fill="#15191b" fill-opacity="0.275" d="
  M 131.38 159.78
  Q 132.04 160.04 132.74 161.26
  Q 133.35 162.56 133.26 163.97
  Q 133.24 164.41 132.89 164.67
  Q 131.93 165.39 131.22 167.40
  L 127.15 163.35
  L 127.29 162.24
  Q 130.78 162.28 131.38 159.78
  Z"
/>
<path fill="#ccad61" d="
  M 78.88 160.10
  Q 82.72 161.03 84.83 164.44
  Q 95.57 181.37 111.15 193.66
  C 116.44 197.83 123.77 201.96 129.99 206.30
  Q 130.03 206.50 129.46 206.56
  Q 129.13 206.44 128.90 206.52
  Q 128.38 206.72 128.59 207.23
  L 132.71 217.22
  C 106.90 205.35 84.55 189.27 78.88 160.10
  Z"
/>
<path fill="#f8e79d" d="
  M 191.57 160.20
  C 208.02 168.02 223.86 179.35 234.87 194.00
  Q 233.84 194.33 233.00 193.14
  C 221.15 178.83 206.63 170.22 191.21 161.57
  Q 190.60 161.23 191.57 160.20
  Z"
/>
<path fill="#1a3652" d="
  M 109.43 160.42
  L 111.59 163.41
  Q 110.90 163.48 110.94 164.03
  Q 109.61 162.12 109.43 160.42
  Z"
/>
<path fill="#142f4a" fill-opacity="0.753" d="
  M 132.74 161.26
  L 133.52 161.72
  C 133.18 164.07 136.38 169.47 137.80 171.23
  Q 138.17 172.50 136.36 173.69
  L 131.22 167.40
  Q 131.93 165.39 132.89 164.67
  Q 133.24 164.41 133.26 163.97
  Q 133.35 162.56 132.74 161.26
  Z"
/>
<path fill="#39678d" d="
  M 133.52 161.72
  L 136.38 162.23
  L 140.71 167.55
  L 139.09 167.00
  A 0.53 0.53 0.0 0 0 138.46 167.77
  Q 141.88 173.59 147.59 177.30
  A 1.22 1.21 3.8 0 1 148.04 177.81
  Q 148.46 178.71 148.99 178.78
  Q 149.09 179.20 148.96 179.62
  Q 148.79 180.14 148.39 179.76
  Q 145.99 177.55 142.87 176.63
  Q 142.35 176.48 142.00 176.07
  L 137.80 171.23
  C 136.38 169.47 133.18 164.07 133.52 161.72
  Z"
/>
<path fill="#f8e79d" d="
  M 89.16 162.13
  C 96.01 173.74 106.17 182.77 116.78 190.77
  C 128.58 199.65 143.67 207.01 157.26 214.03
  Q 162.26 216.61 167.53 218.52
  Q 167.74 218.60 167.72 218.87
  Q 167.69 219.16 167.41 219.11
  Q 155.36 216.92 143.78 212.85
  L 134.95 209.10
  L 129.99 206.30
  C 123.77 201.96 116.44 197.83 111.15 193.66
  Q 95.57 181.37 84.83 164.44
  L 87.64 162.52
  Q 88.05 162.24 88.47 162.48
  Q 89.36 162.97 89.16 162.13
  Z"
/>
<path fill="#f8e79d" d="
  M 344.03 177.18
  Q 331.42 177.50 320.05 184.05
  Q 306.56 191.82 295.67 202.09
  C 312.95 181.74 340.13 166.59 365.96 162.47
  A 0.26 0.26 0.0 0 1 366.13 162.96
  Q 354.24 169.56 344.03 177.18
  Z"
/>
<path fill="#15191b" fill-opacity="0.275" d="
  M 140.71 167.55
  L 149.28 175.63
  Q 147.54 175.88 148.99 178.78
  Q 148.46 178.71 148.04 177.81
  A 1.22 1.21 3.8 0 0 147.59 177.30
  Q 141.88 173.59 138.46 167.77
  A 0.53 0.53 0.0 0 1 139.09 167.00
  L 140.71 167.55
  Z"
/>
<path fill="#ccad61" d="
  M 418.27 168.56
  C 414.15 178.10 404.17 191.00 394.95 196.95
  Q 394.66 197.14 394.39 196.97
  A 0.46 0.46 0.0 0 1 394.30 196.26
  L 403.12 186.89
  Q 403.80 186.03 403.74 185.46
  A 0.50 0.50 0.0 0 0 403.10 185.03
  L 401.95 185.39
  Q 399.68 185.84 397.62 187.64
  Q 397.19 187.43 396.78 187.46
  C 404.94 182.52 411.20 174.37 417.36 167.35
  Q 417.48 167.21 417.64 167.28
  A 0.10 0.10 0.0 0 1 417.68 167.42
  L 417.52 167.68
  Q 417.34 167.99 417.65 168.17
  L 418.27 168.56
  Z"
/>
<path fill="#1a3652" d="
  M 394.76 170.25
  Q 394.76 169.92 394.02 169.99
  Q 394.90 168.68 396.05 167.95
  Q 396.79 167.49 396.27 168.19
  L 394.76 170.25
  Z"
/>
<path fill="#274f6d" d="
  M 137.80 171.23
  L 142.00 176.07
  Q 142.35 176.48 142.87 176.63
  Q 145.99 177.55 148.39 179.76
  Q 148.79 180.14 148.96 179.62
  Q 149.09 179.20 148.99 178.78
  L 157.27 185.93
  Q 162.27 192.21 168.97 196.80
  Q 172.78 199.41 181.33 206.42
  C 187.50 211.47 197.13 217.21 204.57 224.01
  Q 207.72 226.89 211.16 229.55
  Q 214.51 233.68 216.92 237.86
  Q 219.08 241.62 215.38 239.36
  C 214.47 238.80 213.03 237.95 212.03 237.03
  C 195.90 222.20 182.10 212.32 166.46 200.54
  C 155.40 192.20 146.07 183.21 136.36 173.69
  Q 138.17 172.50 137.80 171.23
  Z"
/>
<path fill="#b39048" d="
  M 344.03 177.18
  C 342.40 179.17 341.41 180.74 338.96 181.76
  C 327.68 186.45 316.79 195.62 308.16 204.01
  C 295.25 216.56 286.46 232.17 274.80 247.19
  A 0.27 0.27 0.0 0 1 274.32 246.98
  Q 278.76 220.99 295.67 202.09
  Q 306.56 191.82 320.05 184.05
  Q 331.42 177.50 344.03 177.18
  Z"
/>
<path fill="#f8e79d" d="
  M 414.56 192.35
  Q 414.05 191.92 413.59 191.81
  Q 413.17 191.72 412.66 192.14
  C 404.70 198.81 398.05 204.61 387.75 209.65
  L 377.98 212.65
  L 366.01 215.73
  Q 364.47 215.93 364.78 215.27
  Q 383.02 208.94 399.54 198.82
  C 406.72 194.43 412.60 189.04 418.66 183.15
  Q 419.72 182.12 419.18 183.50
  Q 417.51 187.79 414.56 192.35
  Z"
/>
<path fill="#f8e79d" d="
  M 343.09 189.90
  L 341.16 189.77
  A 1.06 1.06 0.0 0 0 340.40 190.02
  C 335.46 194.20 330.25 197.71 326.25 202.70
  Q 323.17 206.55 320.02 210.89
  C 323.85 198.26 334.29 189.95 346.08 185.14
  A 0.39 0.39 0.0 0 1 346.46 185.81
  Q 344.33 187.39 343.09 189.90
  Z"
/>
<path fill="#142f4a" fill-opacity="0.753" d="
  M 403.12 186.89
  Q 402.65 185.87 401.95 185.39
  L 403.10 185.03
  A 0.50 0.50 0.0 0 1 403.74 185.46
  Q 403.80 186.03 403.12 186.89
  Z"
/>
<path fill="#439ace" d="
  M 157.27 185.93
  Q 166.32 193.37 175.85 199.13
  C 177.03 199.85 178.28 201.37 179.51 202.14
  Q 197.43 213.33 211.16 229.55
  Q 207.72 226.89 204.57 224.01
  C 197.13 217.21 187.50 211.47 181.33 206.42
  Q 172.78 199.41 168.97 196.80
  Q 162.27 192.21 157.27 185.93
  Z"
/>
<path fill="#15191b" fill-opacity="0.275" d="
  M 136.51 186.23
  L 140.97 189.04
  Q 142.50 189.69 141.77 191.27
  Q 141.57 191.72 140.86 191.77
  A 0.60 0.59 9.0 0 0 140.36 192.13
  L 138.26 197.07
  A 0.78 0.78 0.0 0 1 137.29 197.51
  Q 135.87 197.04 134.89 195.95
  Q 134.57 195.59 134.15 195.33
  L 130.01 192.74
  Q 130.91 192.88 131.17 192.44
  Q 133.06 193.37 134.69 192.92
  Q 135.19 192.79 135.44 192.33
  Q 136.76 189.89 136.51 186.23
  Z"
/>
<path fill="#142f4a" fill-opacity="0.753" d="
  M 396.78 187.46
  Q 397.19 187.43 397.62 187.64
  L 396.23 188.28
  Q 395.77 188.48 395.76 188.98
  Q 395.73 189.95 394.76 190.25
  Q 393.81 190.55 393.87 191.43
  Q 393.90 191.90 393.54 192.20
  Q 388.35 196.49 381.85 199.06
  L 382.72 194.29
  L 396.78 187.46
  Z"
/>
<path fill="#ccad61" d="
  M 343.09 189.90
  Q 328.73 207.40 324.61 229.84
  Q 324.54 230.20 324.17 230.18
  Q 319.28 229.89 318.32 225.96
  Q 316.44 218.25 320.02 210.89
  Q 323.17 206.55 326.25 202.70
  C 330.25 197.71 335.46 194.20 340.40 190.02
  A 1.06 1.06 0.0 0 1 341.16 189.77
  L 343.09 189.90
  Z"
/>
<path fill="#f8e79d" d="
  M 138.26 234.47
  L 127.83 231.68
  L 115.30 226.50
  C 108.88 222.40 101.74 219.02 95.98 214.59
  Q 89.77 209.80 83.77 204.75
  Q 83.42 204.46 82.97 204.48
  L 81.44 204.53
  L 76.62 191.61
  Q 76.10 190.23 77.01 191.39
  C 88.27 205.71 101.31 214.45 118.26 222.02
  Q 136.65 230.23 155.76 236.30
  A 0.31 0.31 0.0 0 1 155.62 236.91
  L 138.26 234.47
  Z"
/>
<path fill="#f8e79d" d="
  M 235.41 228.21
  Q 228.82 216.20 219.90 208.04
  Q 219.53 207.70 219.03 207.70
  L 216.61 207.70
  Q 212.64 199.05 206.69 191.70
  A 0.22 0.22 0.0 0 1 206.97 191.37
  Q 228.82 203.60 235.41 228.21
  Z"
/>
<path fill="#ccad61" d="
  M 414.56 192.35
  Q 403.53 208.29 386.36 217.51
  A 0.27 0.27 0.0 0 1 385.98 217.16
  C 386.18 216.69 386.46 216.14 386.94 215.88
  Q 390.32 214.04 392.09 210.23
  Q 389.48 210.69 387.75 209.65
  C 398.05 204.61 404.70 198.81 412.66 192.14
  Q 413.17 191.72 413.59 191.81
  Q 414.05 191.92 414.56 192.35
  Z"
/>
<path fill="#ccad61" d="
  M 233.00 193.14
  Q 233.84 194.33 234.87 194.00
  C 250.64 212.92 246.84 236.18 252.40 257.83
  A 0.16 0.16 0.0 0 1 252.10 257.95
  C 246.60 247.22 244.38 235.37 241.26 223.80
  C 238.25 212.67 234.55 205.09 227.19 197.30
  Q 228.67 197.34 229.80 199.51
  A 0.03 0.03 0.0 0 0 229.85 199.51
  Q 229.94 199.39 230.00 199.31
  Q 230.05 199.24 230.00 199.17
  C 228.76 197.29 231.11 196.08 232.64 195.07
  Q 233.03 194.81 232.84 194.38
  Q 232.36 193.31 233.00 193.14
  Z"
/>
<path fill="#274f6d" d="
  M 382.72 194.29
  L 381.85 199.06
  Q 371.39 203.39 360.80 207.29
  Q 356.45 208.88 352.49 208.42
  A 1.29 1.29 0.0 0 1 352.04 205.99
  L 364.91 199.23
  L 382.72 194.29
  Z"
/>
<path fill="#ccad61" d="
  M 115.30 226.50
  L 115.51 227.51
  Q 115.64 228.16 114.98 228.19
  L 113.20 228.28
  Q 110.72 226.87 108.17 225.33
  Q 107.99 225.23 107.81 225.24
  Q 107.46 225.27 107.76 225.47
  L 117.98 232.01
  Q 126.87 238.14 136.55 241.92
  A 0.47 0.46 -28.8 0 1 136.29 242.81
  C 127.95 241.23 119.14 239.52 111.85 236.06
  Q 91.14 226.22 81.44 204.53
  L 82.97 204.48
  Q 83.42 204.46 83.77 204.75
  Q 89.77 209.80 95.98 214.59
  C 101.74 219.02 108.88 222.40 115.30 226.50
  Z"
/>
<path fill="#39678d" d="
  M 129.99 206.30
  L 134.95 209.10
  L 143.26 213.34
  L 150.37 218.00
  Q 149.55 219.37 150.27 219.12
  L 149.64 219.87
  Q 151.88 223.55 151.19 225.89
  Q 143.57 222.12 137.68 217.30
  L 129.46 206.56
  Q 130.03 206.50 129.99 206.30
  Z"
/>
<path fill="#15191b" fill-opacity="0.275" d="
  M 129.46 206.56
  L 137.68 217.30
  L 132.71 217.22
  L 128.59 207.23
  Q 128.38 206.72 128.90 206.52
  Q 129.13 206.44 129.46 206.56
  Z"
/>
<path fill="#edd58d" d="
  M 235.41 228.21
  Q 237.02 235.05 238.67 242.40
  C 241.85 256.55 247.52 267.40 257.46 277.87
  Q 255.83 278.19 254.18 276.26
  C 250.90 272.42 246.41 269.51 244.02 266.21
  Q 232.03 249.61 227.41 231.80
  Q 226.11 226.83 226.24 232.01
  Q 226.33 236.05 225.17 240.43
  Q 224.88 241.50 223.70 241.22
  C 221.19 230.84 220.32 218.95 216.61 207.70
  L 219.03 207.70
  Q 219.53 207.70 219.90 208.04
  Q 228.82 216.20 235.41 228.21
  Z"
/>
<path fill="#274f6d" d="
  M 134.95 209.10
  L 143.78 212.85
  Q 143.10 213.13 143.26 213.34
  L 134.95 209.10
  Z"
/>
<path fill="#39678d" d="
  M 387.75 209.65
  Q 389.48 210.69 392.09 210.23
  C 384.62 216.31 379.03 217.87 369.39 220.39
  C 369.82 218.58 369.63 216.77 367.60 216.77
  Q 366.88 216.77 366.27 216.66
  Q 368.34 215.61 369.88 216.79
  Q 370.26 217.08 370.73 217.19
  Q 376.67 218.52 379.74 213.20
  Q 379.97 212.79 379.50 212.76
  L 377.98 212.65
  L 387.75 209.65
  Z"
/>
<path fill="#b39048" d="
  M 402.29 212.46
  C 398.46 216.88 393.93 219.81 389.26 223.19
  C 379.97 229.93 368.56 233.55 357.33 235.19
  A 0.33 0.33 0.0 0 1 357.17 234.55
  C 369.93 229.76 381.03 223.20 393.15 217.34
  C 396.20 215.87 399.07 213.81 401.96 212.06
  Q 403.39 211.19 402.29 212.46
  Z"
/>
<path fill="#15191b" fill-opacity="0.275" d="
  M 377.98 212.65
  L 379.50 212.76
  Q 379.97 212.79 379.74 213.20
  Q 376.67 218.52 370.73 217.19
  Q 370.26 217.08 369.88 216.79
  Q 368.34 215.61 366.27 216.66
  Q 366.21 216.50 365.95 216.45
  Q 365.66 216.40 365.80 216.14
  L 366.01 215.73
  L 377.98 212.65
  Z"
/>
<path fill="#1a3652" d="
  M 364.78 215.27
  Q 364.47 215.93 366.01 215.73
  L 365.80 216.14
  Q 365.66 216.40 365.95 216.45
  Q 366.21 216.50 366.27 216.66
  Q 366.88 216.77 367.60 216.77
  C 369.63 216.77 369.82 218.58 369.39 220.39
  C 365.99 222.05 350.50 228.41 349.36 221.75
  A 1.13 1.12 61.0 0 1 349.62 220.82
  C 351.99 218.07 361.93 216.22 364.78 215.27
  Z"
/>
<path fill="#274f6d" d="
  M 150.37 218.00
  C 152.60 219.25 154.84 220.13 156.97 221.68
  C 163.72 226.57 172.76 229.84 181.20 231.98
  Q 184.11 232.73 186.24 234.38
  Q 192.81 239.15 200.29 242.69
  Q 200.18 242.91 200.73 243.09
  Q 201.28 243.27 200.75 243.25
  Q 200.62 243.25 200.49 243.25
  Q 200.00 243.26 200.00 243.75
  L 200.00 244.82
  Q 200.00 245.48 200.61 245.72
  Q 204.48 247.30 203.18 248.92
  C 197.04 245.54 191.36 242.45 184.60 239.99
  C 173.43 235.92 161.46 231.80 151.19 225.89
  Q 151.88 223.55 149.64 219.87
  C 150.75 220.66 152.57 222.92 153.43 223.21
  Q 155.12 223.77 154.74 221.80
  A 1.18 1.18 0.0 0 0 154.10 220.96
  L 150.27 219.12
  Q 149.55 219.37 150.37 218.00
  Z"
/>
<path fill="#142f4a" fill-opacity="0.753" d="
  M 150.27 219.12
  L 154.10 220.96
  A 1.18 1.18 0.0 0 1 154.74 221.80
  Q 155.12 223.77 153.43 223.21
  C 152.57 222.92 150.75 220.66 149.64 219.87
  L 150.27 219.12
  Z"
/>
<path fill="#1a3652" d="
  M 113.20 228.28
  L 118.53 231.43
  Q 117.91 231.45 117.98 232.01
  L 107.76 225.47
  Q 107.46 225.27 107.81 225.24
  Q 107.99 225.23 108.17 225.33
  Q 110.72 226.87 113.20 228.28
  Z"
/>
<path fill="#39678d" d="
  M 115.30 226.50
  L 127.83 231.68
  L 138.32 235.35
  L 142.32 236.63
  Q 141.42 236.64 141.01 236.92
  A 0.37 0.36 -53.0 0 0 141.10 237.57
  L 147.45 239.63
  Q 146.20 241.71 146.03 243.32
  Q 138.31 241.54 131.41 237.76
  C 126.67 235.17 122.88 233.51 118.53 231.43
  L 113.20 228.28
  L 114.98 228.19
  Q 115.64 228.16 115.51 227.51
  L 115.30 226.50
  Z"
/>
<path fill="#b39048" d="
  M 257.46 277.87
  L 262.37 282.38
  A 0.26 0.26 0.0 0 1 262.11 282.82
  C 242.40 276.72 228.09 261.45 223.70 241.22
  Q 224.88 241.50 225.17 240.43
  Q 226.33 236.05 226.24 232.01
  Q 226.11 226.83 227.41 231.80
  Q 232.03 249.61 244.02 266.21
  C 246.41 269.51 250.90 272.42 254.18 276.26
  Q 255.83 278.19 257.46 277.87
  Z"
/>
<path fill="#edd58d" d="
  M 371.21 238.93
  L 358.30 242.01
  Q 357.02 242.13 357.26 241.55
  L 382.18 230.99
  A 0.49 0.49 0.0 0 1 382.76 231.75
  Q 378.21 237.44 371.21 238.93
  Z"
/>
<path fill="#1a3652" d="
  M 127.83 231.68
  L 138.26 234.47
  Q 138.20 235.16 138.32 235.35
  L 127.83 231.68
  Z"
/>
<path fill="#439ace" d="
  M 186.24 234.38
  Q 194.23 237.31 200.74 242.33
  Q 200.32 242.57 200.29 242.69
  Q 192.81 239.15 186.24 234.38
  Z"
/>
<path fill="#ccdae3" d="
  M 142.32 236.63
  C 149.26 239.47 157.66 240.81 170.08 243.38
  Q 170.91 243.55 170.14 243.90
  Q 169.40 244.24 167.99 243.96
  L 147.45 239.63
  L 141.10 237.57
  A 0.37 0.36 -53.0 0 1 141.01 236.92
  Q 141.42 236.64 142.32 236.63
  Z"
/>
<path fill="#fefefe" d="
  M 330.10 323.57
  Q 329.92 323.52 329.78 323.50
  Q 329.49 323.46 329.39 323.19
  Q 328.36 320.30 326.44 318.22
  Q 326.94 313.94 325.97 309.61
  A 0.41 0.41 0.0 0 0 325.16 309.63
  Q 324.91 311.14 323.68 312.42
  Q 323.36 312.75 322.79 312.24
  L 322.31 308.76
  L 321.60 303.78
  Q 321.48 302.90 321.27 303.77
  L 320.17 308.24
  Q 318.50 315.24 314.75 321.59
  Q 310.06 328.61 302.96 333.62
  Q 303.19 331.71 304.34 330.88
  C 309.58 323.97 312.26 313.79 311.26 305.22
  Q 311.16 304.36 310.72 305.11
  L 305.62 313.88
  L 305.74 299.02
  L 306.27 289.91
  A 0.12 0.12 0.0 0 0 306.04 289.87
  L 303.65 298.25
  Q 301.70 305.27 297.07 311.08
  Q 297.89 305.22 297.28 299.45
  A 0.07 0.07 0.0 0 0 297.15 299.43
  Q 295.88 303.65 292.37 304.37
  L 294.67 283.48
  A 0.24 0.23 -29.4 0 0 294.22 283.36
  C 291.05 289.84 288.13 296.11 282.76 301.31
  L 284.45 289.53
  Q 284.67 287.99 283.78 289.27
  L 279.31 295.68
  A 0.85 0.85 0.0 0 1 277.95 295.73
  L 277.72 295.45
  L 281.15 283.79
  C 281.77 280.26 285.42 275.99 287.62 273.16
  Q 287.70 273.06 287.73 272.94
  Q 287.82 272.54 287.57 272.51
  Q 287.26 272.46 287.07 272.70
  Q 284.31 276.01 280.80 277.08
  C 283.53 270.75 290.20 266.61 296.13 262.70
  A 0.07 0.07 0.0 0 0 296.08 262.58
  Q 285.23 265.13 275.17 272.76
  Q 280.40 265.09 287.05 259.57
  Q 287.68 259.05 286.86 259.06
  C 282.57 259.10 279.31 261.72 276.51 264.84
  Q 276.12 265.29 275.77 264.80
  L 275.54 264.47
  Q 284.08 255.09 296.01 251.08
  L 300.34 249.92
  Q 300.45 249.89 300.48 249.83
  Q 300.50 249.79 300.50 249.75
  Q 300.50 249.59 300.29 249.61
  L 295.72 249.94
  Q 286.16 250.03 277.55 253.72
  A 0.27 0.27 0.0 0 1 277.26 253.28
  C 292.23 239.13 314.52 235.28 334.05 239.23
  C 341.57 240.75 347.55 244.00 352.62 249.38
  A 1.11 1.11 0.0 0 1 352.21 251.18
  C 348.08 252.77 344.52 253.31 339.93 252.39
  C 329.46 250.30 320.29 247.46 309.47 249.34
  A 0.06 0.06 0.0 0 0 309.46 249.46
  L 317.39 251.89
  A 0.84 0.83 -1.3 0 1 317.95 252.42
  Q 322.06 264.37 334.06 259.08
  A 0.45 0.45 0.0 0 1 334.63 259.71
  Q 331.50 265.38 325.20 267.39
  Q 321.82 268.47 325.45 268.24
  C 333.97 267.70 341.71 268.19 349.92 270.63
  Q 350.11 270.69 350.17 270.84
  Q 350.29 271.15 349.96 271.11
  C 336.65 269.43 320.10 271.31 308.74 279.13
  A 0.16 0.16 0.0 0 0 308.89 279.42
  Q 310.26 278.92 310.95 279.11
  Q 311.57 279.28 311.35 279.88
  Q 309.80 283.98 312.09 287.54
  Q 312.25 287.78 312.32 287.51
  Q 314.06 280.56 321.28 279.39
  A 0.29 0.29 0.0 0 1 321.50 279.90
  C 316.82 283.51 318.86 291.38 321.33 295.53
  Q 321.63 296.03 321.68 295.45
  C 321.85 293.11 322.45 286.90 323.75 285.55
  Q 324.03 285.27 324.01 285.67
  Q 323.74 291.55 328.10 295.45
  Q 328.66 295.95 328.50 295.22
  Q 327.32 289.54 331.13 285.27
  Q 331.79 284.53 331.87 285.52
  L 332.07 287.96
  Q 332.25 290.18 333.00 288.08
  Q 334.10 285.02 336.17 282.51
  Q 336.65 281.92 336.56 282.68
  C 334.77 296.85 335.66 310.99 330.10 323.57
  Z
  M 313.87 268.94
  C 306.65 270.59 296.15 274.18 298.22 283.92
  Q 298.40 284.75 298.77 283.98
  Q 303.68 273.89 314.00 269.34
  A 0.21 0.21 0.0 0 0 313.87 268.94
  Z"
/>
<path fill="#15191b" fill-opacity="0.275" d="
  M 371.21 238.93
  C 371.70 241.69 368.33 242.90 366.50 244.27
  Q 362.34 241.47 356.80 243.25
  A 0.25 0.25 0.0 0 1 356.62 242.78
  L 358.30 242.01
  L 371.21 238.93
  Z"
/>
<path fill="#f8e79d" d="
  M 155.02 259.08
  Q 145.58 258.80 136.59 256.91
  Q 115.85 253.33 96.81 243.69
  Q 95.28 242.91 93.48 243.92
  L 91.02 239.95
  Q 90.64 239.33 91.31 239.61
  Q 103.70 244.65 116.74 247.53
  Q 146.31 254.05 176.47 257.03
  A 0.32 0.32 0.0 0 1 176.46 257.67
  L 155.02 259.08
  Z"
/>
<path fill="#1a3652" d="
  M 147.45 239.63
  L 167.99 243.96
  Q 167.98 244.80 168.45 245.80
  Q 168.67 246.27 168.32 246.65
  Q 166.69 248.42 164.72 247.85
  Q 155.41 245.17 146.03 243.32
  Q 146.20 241.71 147.45 239.63
  Z"
/>
<path fill="#1a3652" d="
  M 357.26 241.55
  Q 357.02 242.13 358.30 242.01
  L 356.62 242.78
  A 0.25 0.25 0.0 0 0 356.80 243.25
  Q 362.34 241.47 366.50 244.27
  L 357.62 249.36
  A 0.63 0.62 54.8 0 1 356.83 249.22
  C 355.39 247.55 353.94 242.38 357.26 241.55
  Z"
/>
<path fill="#1a3652" d="
  M 200.74 242.33
  Q 208.32 247.00 213.26 253.82
  A 0.49 0.49 0.0 0 1 212.61 254.53
  L 203.18 248.92
  Q 204.48 247.30 200.61 245.72
  Q 200.00 245.48 200.00 244.82
  L 200.00 243.75
  Q 200.00 243.26 200.49 243.25
  Q 200.62 243.25 200.75 243.25
  Q 201.28 243.27 200.73 243.09
  Q 200.18 242.91 200.29 242.69
  Q 200.32 242.57 200.74 242.33
  Z"
/>
<path fill="#ccad61" d="
  M 136.59 256.91
  L 134.92 259.54
  Q 135.33 259.14 134.05 259.26
  L 128.24 257.20
  A 0.19 0.19 0.0 0 0 128.10 257.56
  L 134.30 260.20
  Q 142.24 265.22 151.11 267.91
  A 0.29 0.29 0.0 0 1 151.03 268.47
  C 128.40 269.32 107.57 262.15 93.48 243.92
  Q 95.28 242.91 96.81 243.69
  Q 115.85 253.33 136.59 256.91
  Z"
/>
<path fill="#1a3652" d="
  M 296.01 251.08
  Q 296.07 250.49 295.72 249.94
  L 300.29 249.61
  Q 300.50 249.59 300.50 249.75
  Q 300.50 249.79 300.48 249.83
  Q 300.45 249.89 300.34 249.92
  L 296.01 251.08
  Z"
/>
<path fill="#f8e79d" d="
  M 329.26 257.02
  C 326.56 259.58 323.22 256.04 323.06 253.22
  A 1.02 1.02 0.0 0 1 324.59 252.28
  Q 325.18 252.61 325.28 253.54
  C 325.51 255.64 326.93 256.65 329.04 256.53
  Q 329.83 256.48 329.26 257.02
  Z"
/>
<path fill="#edd58d" d="
  M 354.56 252.67
  C 353.66 256.39 355.88 258.07 358.94 259.82
  C 363.86 262.63 365.01 269.36 364.54 275.30
  Q 364.50 275.84 365.03 275.76
  L 365.45 275.69
  Q 364.09 280.03 360.88 281.67
  Q 360.23 282.00 360.47 281.30
  C 364.53 269.96 352.15 267.59 344.22 266.24
  L 345.73 261.01
  Q 348.60 261.12 350.00 259.07
  Q 350.33 258.59 349.79 258.36
  Q 346.63 257.06 344.50 259.26
  Q 343.61 258.86 342.93 257.50
  Q 348.47 253.87 354.56 252.67
  Z"
/>
<path fill="#f8e79d" d="
  M 354.56 252.67
  C 364.03 257.45 369.93 264.68 365.45 275.69
  L 365.03 275.76
  Q 364.50 275.84 364.54 275.30
  C 365.01 269.36 363.86 262.63 358.94 259.82
  C 355.88 258.07 353.66 256.39 354.56 252.67
  Z"
/>
<path fill="#15191b" fill-opacity="0.275" d="
  M 136.59 256.91
  Q 145.58 258.80 155.02 259.08
  Q 153.07 259.19 153.15 259.82
  Q 150.29 258.43 146.96 263.03
  Q 144.92 262.12 142.59 261.21
  C 139.98 260.18 137.55 260.58 134.92 259.54
  L 136.59 256.91
  Z"
/>
<path fill="#1a3652" d="
  M 134.05 259.26
  Q 133.85 259.81 134.30 260.20
  L 128.10 257.56
  A 0.19 0.19 0.0 0 1 128.24 257.20
  L 134.05 259.26
  Z"
/>
<path fill="#ccad61" d="
  M 342.93 257.50
  Q 343.61 258.86 344.50 259.26
  Q 343.91 260.06 344.25 260.50
  Q 344.59 260.93 345.73 261.01
  L 344.22 266.24
  L 337.76 264.70
  A 1.30 1.30 0.0 0 1 336.83 263.02
  L 338.53 257.98
  A 0.81 0.81 0.0 0 1 339.47 257.46
  Q 341.47 257.91 342.93 257.50
  Z"
/>
<path fill="#ccdae3" d="
  M 275.17 272.76
  L 268.44 276.86
  A 0.27 0.27 0.0 0 1 268.05 276.51
  Q 271.14 270.13 275.54 264.47
  L 275.77 264.80
  Q 276.12 265.29 276.51 264.84
  C 279.31 261.72 282.57 259.10 286.86 259.06
  Q 287.68 259.05 287.05 259.57
  Q 280.40 265.09 275.17 272.76
  Z"
/>
<path fill="#39678d" d="
  M 153.15 259.82
  L 177.05 262.26
  Q 173.16 263.27 169.03 263.15
  C 166.24 263.06 162.71 261.61 159.19 261.76
  Q 158.43 261.80 158.88 262.40
  L 162.84 267.80
  Q 154.53 266.12 146.96 263.03
  Q 150.29 258.43 153.15 259.82
  Z"
/>
<path fill="#274f6d" d="
  M 203.06 263.39
  Q 201.83 261.76 200.16 262.89
  Q 199.79 263.15 199.71 263.59
  L 199.37 265.56
  Q 199.26 266.19 198.62 266.21
  Q 194.15 266.29 192.06 263.23
  L 190.99 261.92
  A 0.59 0.58 -21.9 0 1 191.40 260.97
  Q 204.19 259.92 215.83 261.67
  C 218.04 262.00 220.08 263.24 222.09 264.15
  A 0.23 0.23 0.0 0 1 221.94 264.59
  Q 212.93 262.36 203.06 263.39
  Z"
/>
<path fill="#1a3652" d="
  M 177.05 262.26
  Q 183.74 263.77 192.06 263.23
  Q 194.15 266.29 198.62 266.21
  Q 199.26 266.19 199.37 265.56
  L 199.71 263.59
  Q 199.79 263.15 200.16 262.89
  Q 201.83 261.76 203.06 263.39
  Q 205.73 266.26 210.02 267.37
  A 1.13 1.11 -14.4 0 1 210.55 267.68
  L 211.82 268.95
  A 0.49 0.49 0.0 0 1 211.44 269.79
  C 202.84 269.12 193.74 270.65 186.51 270.49
  Q 177.42 270.29 167.50 268.95
  Q 164.37 268.53 162.84 267.80
  L 158.88 262.40
  Q 158.43 261.80 159.19 261.76
  C 162.71 261.61 166.24 263.06 169.03 263.15
  Q 173.16 263.27 177.05 262.26
  Z
  M 166.67 265.77
  C 169.81 266.28 171.95 266.82 174.83 265.74
  A 1.25 1.25 0.0 0 0 174.41 263.32
  L 166.87 263.22
  A 1.31 1.31 0.0 0 0 165.55 264.43
  Q 165.46 265.57 166.67 265.77
  Z"
/>
<path fill="#142f4a" fill-opacity="0.753" d="
  M 166.67 265.77
  Q 165.46 265.57 165.55 264.43
  A 1.31 1.31 0.0 0 1 166.87 263.22
  L 174.41 263.32
  A 1.25 1.25 0.0 0 1 174.83 265.74
  C 171.95 266.82 169.81 266.28 166.67 265.77
  Z"
/>
<path fill="#f8e79d" d="
  M 161.70 281.18
  Q 140.10 281.61 119.30 275.32
  C 118.15 274.98 116.34 273.56 114.98 274.55
  Q 113.34 273.74 112.60 272.57
  Q 112.20 271.94 112.94 272.08
  Q 140.00 277.23 167.49 276.32
  Q 174.21 276.10 180.86 276.31
  A 0.19 0.19 0.0 0 1 180.89 276.69
  L 161.70 281.18
  Z"
/>
<path fill="#ccdae3" d="
  M 281.15 283.79
  Q 278.45 284.24 276.64 285.99
  A 0.49 0.48 83.5 0 1 275.89 285.39
  L 280.80 277.08
  Q 284.31 276.01 287.07 272.70
  Q 287.26 272.46 287.57 272.51
  Q 287.82 272.54 287.73 272.94
  Q 287.70 273.06 287.62 273.16
  C 285.42 275.99 281.77 280.26 281.15 283.79
  Z"
/>
<path fill="#b39048" d="
  M 161.70 281.18
  Q 161.80 281.42 161.74 281.90
  Q 158.15 280.98 155.54 283.92
  Q 154.21 283.06 153.26 283.29
  Q 152.53 283.46 153.16 283.87
  Q 154.48 284.74 156.26 284.98
  L 159.17 286.13
  L 170.36 289.64
  C 155.48 292.55 143.15 290.14 130.02 283.60
  C 123.72 280.46 119.61 278.63 114.98 274.55
  C 116.34 273.56 118.15 274.98 119.30 275.32
  Q 140.10 281.61 161.70 281.18
  Z"
/>
<path fill="#274f6d" d="
  M 172.56 287.56
  L 160.53 285.57
  Q 160.51 285.47 160.49 285.38
  C 163.38 284.82 165.95 283.84 168.91 283.69
  Q 176.61 283.27 183.95 281.03
  L 198.79 277.79
  A 0.45 0.45 0.0 0 1 199.09 278.63
  C 191.18 282.67 181.61 287.51 172.56 287.56
  Z"
/>
<path fill="#39678d" d="
  M 183.95 281.03
  Q 176.61 283.27 168.91 283.69
  C 165.95 283.84 163.38 284.82 160.49 285.38
  L 156.52 284.16
  Q 156.17 283.96 155.54 283.92
  Q 158.15 280.98 161.74 281.90
  L 183.95 281.03
  Z"
/>
<path fill="#39678d" d="
  M 214.12 286.90
  Q 209.35 285.92 203.29 286.39
  Q 221.28 278.91 241.48 282.67
  A 0.35 0.35 0.0 0 1 241.39 283.36
  Q 228.02 282.16 214.12 286.90
  Z"
/>
<path fill="#1a3652" d="
  M 155.54 283.92
  Q 156.17 283.96 156.52 284.16
  Q 156.13 284.34 156.26 284.98
  Q 154.48 284.74 153.16 283.87
  Q 152.53 283.46 153.26 283.29
  Q 154.21 283.06 155.54 283.92
  Z"
/>
<path fill="#15191b" fill-opacity="0.275" d="
  M 156.52 284.16
  L 160.49 285.38
  Q 160.51 285.47 160.53 285.57
  Q 161.29 285.98 159.17 286.13
  L 156.26 284.98
  Q 156.13 284.34 156.52 284.16
  Z"
/>
<path fill="#1a3652" d="
  M 160.53 285.57
  L 172.56 287.56
  L 170.36 289.64
  L 159.17 286.13
  Q 161.29 285.98 160.53 285.57
  Z"
/>
<path fill="#1a3652" d="
  M 203.29 286.39
  Q 209.35 285.92 214.12 286.90
  C 209.08 289.46 198.69 296.16 193.45 294.72
  Q 190.43 293.54 186.22 293.83
  L 187.30 292.38
  A 1.40 1.37 10.7 0 1 188.11 291.84
  Q 196.30 289.76 203.29 286.39
  Z"
/>
<path fill="#ccdae3" d="
  M 282.76 301.31
  Q 279.49 304.07 274.74 305.86
  A 0.38 0.38 0.0 0 1 274.25 305.37
  L 277.72 295.45
  L 277.95 295.73
  A 0.85 0.85 0.0 0 0 279.31 295.68
  L 283.78 289.27
  Q 284.67 287.99 284.45 289.53
  L 282.76 301.31
  Z"
/>
<path fill="#1a3652" d="
  M 305.74 299.02
  Q 305.44 297.71 303.65 298.25
  L 306.04 289.87
  A 0.12 0.12 0.0 0 1 306.27 289.91
  L 305.74 299.02
  Z"
/>
<path fill="#b39048" d="
  M 186.22 293.83
  Q 190.43 293.54 193.45 294.72
  L 174.41 302.24
  A 0.30 0.30 0.0 0 0 174.44 302.81
  Q 190.56 306.96 207.03 305.66
  C 213.80 305.12 221.81 303.27 228.97 301.94
  Q 231.79 301.41 229.08 302.35
  Q 221.39 304.99 212.51 307.06
  Q 211.36 306.83 210.47 307.06
  Q 209.78 307.24 210.44 307.50
  Q 211.42 307.90 212.76 307.85
  Q 220.96 308.68 230.11 307.99
  A 0.41 0.41 0.0 0 1 230.35 308.75
  C 205.90 323.39 172.08 315.73 148.88 301.48
  Q 148.35 301.16 148.97 301.12
  Q 166.03 299.94 182.00 294.05
  C 183.26 293.59 184.92 293.76 186.22 293.83
  Z"
/>
<path fill="#ccdae3" d="
  M 297.07 311.08
  Q 294.80 314.56 291.33 316.80
  Q 290.75 317.17 290.84 316.49
  L 292.37 304.37
  Q 295.88 303.65 297.15 299.43
  A 0.07 0.07 0.0 0 1 297.28 299.45
  Q 297.89 305.22 297.07 311.08
  Z"
/>
<path fill="#1a3652" d="
  M 322.31 308.76
  Q 321.42 307.83 320.17 308.24
  L 321.27 303.77
  Q 321.48 302.90 321.60 303.78
  L 322.31 308.76
  Z"
/>
<path fill="#ccdae3" d="
  M 304.34 330.88
  L 304.77 322.67
  L 305.62 313.88
  L 310.72 305.11
  Q 311.16 304.36 311.26 305.22
  C 312.26 313.79 309.58 323.97 304.34 330.88
  Z"
/>
<path fill="#1a3652" d="
  M 212.51 307.06
  L 212.76 307.85
  Q 211.42 307.90 210.44 307.50
  Q 209.78 307.24 210.47 307.06
  Q 211.36 306.83 212.51 307.06
  Z"
/>
<path fill="#ccdae3" d="
  M 326.44 318.22
  L 322.87 313.12
  Q 322.64 312.97 322.79 312.24
  Q 323.36 312.75 323.68 312.42
  Q 324.91 311.14 325.16 309.63
  A 0.41 0.41 0.0 0 1 325.97 309.61
  Q 326.94 313.94 326.44 318.22
  Z"
/>
<path fill="#274f6d" d="
  M 195.78 350.71
  L 197.42 349.14
  A 1.11 1.04 -21.1 0 0 197.75 348.45
  Q 197.83 347.46 197.26 347.89
  Q 199.44 345.93 204.27 343.53
  Q 207.25 342.05 214.65 336.95
  C 228.57 327.35 243.61 319.88 257.85 310.73
  A 0.21 0.20 -87.3 0 1 258.12 311.03
  C 256.36 313.31 254.59 315.38 252.28 317.29
  C 239.04 328.32 226.57 338.16 210.46 343.45
  Q 202.60 346.03 195.78 350.71
  Z"
/>
<path fill="#39678d" d="
  M 322.87 313.12
  L 326.44 318.22
  Q 328.36 320.30 329.39 323.19
  Q 329.49 323.46 329.78 323.50
  Q 329.92 323.52 330.10 323.57
  L 328.95 324.07
  A 0.79 0.77 -85.7 0 0 328.59 324.39
  C 325.67 329.19 322.95 334.70 319.16 338.60
  Q 308.03 350.06 292.59 356.45
  Q 294.21 354.53 296.30 353.16
  C 308.06 345.43 317.15 333.41 321.20 320.16
  L 322.87 313.12
  Z"
/>
<path fill="#274f6d" d="
  M 262.72 338.55
  Q 261.01 336.76 259.22 338.48
  C 251.57 345.81 249.90 353.84 249.39 364.24
  Q 249.38 364.39 249.24 364.43
  Q 249.09 364.47 248.94 364.52
  Q 248.47 364.67 248.44 364.17
  Q 247.89 354.50 249.40 343.96
  C 254.28 332.89 260.11 325.58 267.16 316.99
  A 0.25 0.25 0.0 0 1 267.58 317.27
  Q 262.39 327.30 262.72 338.55
  Z"
/>
<path fill="#1a3652" d="
  M 321.20 320.16
  C 317.15 333.41 308.06 345.43 296.30 353.16
  Q 294.21 354.53 292.59 356.45
  Q 291.38 356.75 290.50 356.41
  Q 289.99 356.21 290.21 355.70
  L 298.64 336.22
  L 302.96 333.62
  Q 310.06 328.61 314.75 321.59
  Q 316.71 323.95 321.20 320.16
  Z"
/>
<path fill="#274f6d" d="
  M 304.77 322.67
  L 304.34 330.88
  Q 303.19 331.71 302.96 333.62
  L 298.64 336.22
  Q 300.81 328.96 304.77 322.67
  Z"
/>
<path fill="#39678d" d="
  M 171.95 345.31
  Q 158.76 348.81 143.62 348.25
  A 0.08 0.08 0.0 0 1 143.60 348.09
  Q 160.58 344.42 176.24 337.98
  Q 181.52 335.81 184.70 333.87
  Q 196.39 333.43 208.13 330.27
  A 0.38 0.38 0.0 0 1 208.41 330.97
  Q 191.61 339.80 171.95 345.31
  Z"
/>
<path fill="#edd58d" d="
  M 184.70 333.87
  Q 181.52 335.81 176.24 337.98
  Q 160.58 344.42 143.60 348.09
  A 0.08 0.08 0.0 0 0 143.62 348.25
  Q 158.76 348.81 171.95 345.31
  Q 177.82 345.58 183.24 343.97
  Q 183.57 343.87 183.86 343.97
  Q 184.37 344.15 183.87 344.36
  Q 159.11 354.51 132.33 354.99
  Q 131.78 355.00 131.37 354.63
  L 119.23 343.61
  A 0.39 0.39 0.0 0 1 119.44 342.94
  L 184.70 333.87
  Z"
/>
<path fill="#1a3652" d="
  M 262.72 338.55
  Q 263.08 343.17 263.86 347.80
  C 264.62 352.35 266.68 356.60 268.28 360.99
  A 4.82 4.80 -46.6 0 1 268.36 364.04
  C 265.83 372.21 262.56 380.28 261.00 388.86
  A 0.76 0.76 0.0 0 1 259.62 389.16
  L 257.74 386.45
  A 0.92 0.92 0.0 0 0 256.10 386.72
  L 255.37 389.31
  A 0.67 0.67 0.0 0 1 254.10 389.36
  C 251.79 383.20 250.87 376.85 249.63 370.48
  A 0.70 0.70 0.0 0 0 248.31 370.30
  C 246.67 373.63 247.79 376.35 247.13 379.47
  A 0.95 0.95 0.0 0 1 245.29 379.52
  Q 242.03 367.30 244.02 355.51
  Q 244.47 352.80 249.40 343.96
  Q 247.89 354.50 248.44 364.17
  Q 248.47 364.67 248.94 364.52
  Q 249.09 364.47 249.24 364.43
  Q 249.38 364.39 249.39 364.24
  C 249.90 353.84 251.57 345.81 259.22 338.48
  Q 261.01 336.76 262.72 338.55
  Z"
/>
<path fill="#f8e79d" d="
  M 342.07 378.93
  L 340.72 379.35
  L 335.83 377.16
  C 329.95 373.11 322.73 366.34 321.71 359.18
  Q 321.67 358.87 321.88 359.10
  L 325.85 363.60
  A 0.49 0.49 0.0 0 0 326.69 363.18
  Q 324.45 351.98 327.41 340.96
  A 0.18 0.18 0.0 0 1 327.76 340.99
  C 329.03 355.70 331.13 368.01 342.07 378.93
  Z"
/>
<path fill="#f8e79d" d="
  M 285.35 384.87
  Q 283.32 384.37 281.07 382.42
  Q 277.96 379.72 273.27 373.95
  Q 271.68 370.11 271.50 365.17
  Q 271.47 364.17 272.12 364.93
  L 274.05 367.14
  Q 274.54 367.71 274.72 366.98
  L 279.96 345.47
  Q 280.17 344.62 280.36 345.47
  Q 280.79 347.38 280.58 348.76
  Q 277.48 368.80 285.35 384.87
  Z"
/>
<path fill="#edd58d" d="
  M 197.26 347.89
  Q 197.83 347.46 197.75 348.45
  A 1.11 1.04 -21.1 0 1 197.42 349.14
  L 195.78 350.71
  Q 186.30 356.63 176.66 362.17
  C 172.12 364.77 166.51 366.96 161.59 369.59
  Q 161.14 369.83 161.62 369.68
  C 173.46 365.87 184.44 362.05 195.27 356.05
  Q 195.56 355.89 195.75 355.99
  Q 196.09 356.16 195.78 356.38
  C 187.92 362.19 180.48 366.13 170.67 371.27
  Q 160.37 376.67 149.93 380.91
  A 2.38 2.38 0.0 0 1 147.64 380.64
  L 136.56 372.63
  A 0.94 0.94 0.0 0 1 136.79 370.98
  C 157.24 363.59 175.38 358.00 197.26 347.89
  Z"
/>
<path fill="#edd58d" d="
  M 179.06 398.08
  Q 178.91 396.48 178.34 395.54
  C 177.51 394.14 177.16 393.80 177.78 392.38
  Q 177.96 391.98 177.60 391.73
  C 176.70 391.11 177.38 388.16 175.51 386.63
  Q 175.19 386.37 175.41 386.03
  Q 175.71 385.54 175.65 384.64
  Q 189.73 374.17 203.67 363.46
  Q 212.57 356.61 222.04 347.79
  Q 222.16 347.68 222.29 347.72
  Q 222.60 347.83 222.38 348.06
  L 186.68 385.50
  Q 186.54 385.64 186.73 385.71
  Q 186.88 385.76 186.98 385.77
  Q 187.00 385.77 187.02 385.76
  Q 199.63 375.78 212.11 365.65
  A 0.32 0.32 0.0 0 1 212.55 366.10
  Q 197.79 384.06 179.06 398.08
  Z"
/>
<path fill="#b39048" d="
  M 210.68 399.36
  C 216.18 394.19 219.53 389.02 224.49 384.24
  Q 226.27 382.53 231.92 375.50
  Q 232.10 375.27 232.28 375.23
  Q 232.41 375.20 232.52 375.25
  Q 232.79 375.37 232.64 375.62
  C 224.89 388.62 217.38 401.78 206.71 411.15
  A 1.01 0.99 -60.0 0 1 205.89 411.38
  L 193.28 409.20
  A 0.62 0.61 25.8 0 1 192.92 408.18
  C 200.15 400.17 207.04 391.81 214.46 383.92
  C 219.02 379.06 221.80 374.51 227.28 367.96
  Q 227.53 367.67 227.74 367.98
  Q 227.86 368.18 227.69 368.44
  C 221.29 378.23 217.37 387.41 210.46 399.19
  Q 209.96 400.04 210.68 399.36
  Z"
/>
<path fill="#ccad61" d="
  M 273.27 373.95
  Q 277.96 379.72 281.07 382.42
  Q 283.32 384.37 285.35 384.87
  L 293.44 388.22
  Q 299.07 392.46 299.30 395.92
  Q 295.01 391.05 287.85 391.26
  L 282.46 387.36
  A 0.73 0.73 0.0 0 0 281.36 388.26
  L 284.67 395.41
  C 278.00 388.57 271.03 397.37 266.46 401.62
  A 0.23 0.23 0.0 0 1 266.09 401.38
  C 268.28 395.03 272.35 386.66 279.91 385.79
  Q 280.34 385.74 279.99 385.49
  Q 274.62 381.50 273.27 373.95
  Z"
/>
<path fill="#ccad61" d="
  M 335.44 377.77
  L 339.90 380.15
  Q 340.34 380.38 340.57 379.94
  Q 340.70 379.70 340.72 379.35
  L 342.07 378.93
  L 344.08 380.69
  A 1.21 1.18 72.3 0 0 344.53 380.93
  L 354.85 383.61
  L 359.08 390.80
  Q 359.24 393.93 357.03 396.98
  Q 356.56 397.63 356.46 396.83
  C 356.15 394.32 355.46 387.53 352.42 388.75
  Q 351.33 384.57 347.93 383.08
  A 0.47 0.47 0.0 0 0 347.28 383.60
  L 348.65 390.08
  Q 346.52 386.78 343.35 385.09
  C 341.99 384.37 341.37 383.10 340.21 382.44
  Q 335.33 379.67 330.59 376.77
  A 0.31 0.31 0.0 0 1 330.86 376.21
  L 335.44 377.77
  Z"
/>
<path fill="#b39048" d="
  M 335.83 377.16
  L 340.72 379.35
  Q 340.70 379.70 340.57 379.94
  Q 340.34 380.38 339.90 380.15
  L 335.44 377.77
  L 335.83 377.16
  Z"
/>
<path fill="#edd58d" d="
  M 354.89 379.29
  C 362.20 378.54 367.74 379.22 370.28 386.76
  Q 370.53 387.51 369.94 386.98
  C 364.52 382.14 362.15 380.99 354.88 379.90
  Q 352.48 379.54 354.89 379.29
  Z"
/>
<path fill="#b39048" d="
  M 237.74 399.66
  A 0.36 0.36 0.0 0 0 238.42 399.79
  L 244.64 387.26
  A 0.43 0.43 0.0 0 1 245.44 387.53
  C 244.25 393.40 242.78 401.56 239.63 406.74
  C 237.57 410.13 230.62 411.24 226.87 411.88
  A 0.65 0.65 0.0 0 1 226.17 410.96
  Q 232.40 397.67 236.88 383.72
  Q 238.88 377.49 238.06 383.98
  Q 237.06 391.80 237.74 399.66
  Z"
/>
<path fill="#ccad61" d="
  M 330.01 381.11
  Q 334.39 387.69 334.25 392.04
  C 331.18 385.46 327.18 388.22 323.43 391.36
  A 0.32 0.32 0.0 0 1 322.92 391.02
  C 323.71 388.62 324.99 383.23 326.93 381.79
  Q 328.53 380.61 330.01 381.11
  Z"
/>
<path fill="#f8e79d" d="
  M 330.01 381.11
  C 339.40 382.19 340.14 393.25 333.67 398.47
  Q 333.27 398.79 333.35 398.29
  L 334.25 392.04
  Q 334.39 387.69 330.01 381.11
  Z"
/>
<path fill="#f8e79d" d="
  M 352.42 388.75
  Q 352.69 393.63 349.09 398.27
  A 0.36 0.36 0.0 0 1 348.47 397.93
  Q 349.87 394.05 348.65 390.08
  L 347.28 383.60
  A 0.47 0.47 0.0 0 1 347.93 383.08
  Q 351.33 384.57 352.42 388.75
  Z"
/>
<path fill="#f8e79d" d="
  M 354.85 383.61
  Q 359.67 386.30 359.08 390.80
  L 354.85 383.61
  Z"
/>
<path fill="#ccad61" d="
  M 175.65 384.64
  Q 175.71 385.54 175.41 386.03
  Q 175.19 386.37 175.51 386.63
  C 177.38 388.16 176.70 391.11 177.60 391.73
  Q 177.96 391.98 177.78 392.38
  C 177.16 393.80 177.51 394.14 178.34 395.54
  Q 178.91 396.48 179.06 398.08
  Q 176.58 401.51 173.76 400.77
  Q 168.96 399.51 161.10 395.15
  Q 160.55 394.84 161.07 394.49
  L 175.65 384.64
  Z"
/>
<path fill="#f8e79d" d="
  M 287.85 391.26
  Q 291.21 399.27 285.56 404.75
  A 0.35 0.34 -8.8 0 1 285.01 404.35
  Q 287.39 399.65 284.67 395.41
  L 281.36 388.26
  A 0.73 0.73 0.0 0 1 282.46 387.36
  L 287.85 391.26
  Z"
/>
<path fill="#f8e79d" d="
  M 293.44 388.22
  C 303.39 388.48 305.99 397.87 301.37 405.31
  Q 300.81 406.21 299.72 406.65
  Q 299.06 406.91 299.34 406.26
  Q 301.54 401.12 299.30 395.92
  Q 299.07 392.46 293.44 388.22
  Z"
/>
<path fill="#edd58d" d="
  M 307.07 390.52
  C 316.38 391.99 313.40 402.02 308.52 406.04
  A 0.35 0.34 78.1 0 1 307.97 405.68
  Q 310.08 398.08 306.71 391.00
  Q 306.44 390.42 307.07 390.52
  Z"
/>
</svg>
